ISO-10303-21;
HEADER;
FILE_DESCRIPTION(('Open CASCADE Model'),'2;1');
FILE_NAME('Open CASCADE Shape Model','2026-09-06T12:25:12',('Author'),(
    'Open CASCADE'),'Open CASCADE STEP processor 7.7','Open CASCADE 7.7'
  ,'Unknown');
FILE_SCHEMA(('AUTOMOTIVE_DESIGN { 1 0 10303 214 1 1 1 1 }'));
ENDSEC;
DATA;
#1 = APPLICATION_PROTOCOL_DEFINITION('international standard',
  'automotive_design',2000,#2);
#2 = APPLICATION_CONTEXT(
  'core data for automotive mechanical design processes');
#3 = SHAPE_DEFINITION_REPRESENTATION(#4,#10);
#4 = PRODUCT_DEFINITION_SHAPE('','',#5);
#5 = PRODUCT_DEFINITION('design','',#6,#9);
#6 = PRODUCT_DEFINITION_FORMATION('','',#7);
#7 = PRODUCT('Open CASCADE STEP translator 7.7 3',
  'Open CASCADE STEP translator 7.7 3','',(#8));
#8 = PRODUCT_CONTEXT('',#2,'mechanical');
#9 = PRODUCT_DEFINITION_CONTEXT('part definition',#2,'design');
#10 = ADVANCED_BREP_SHAPE_REPRESENTATION('',(#11,#15),#1375);
#11 = AXIS2_PLACEMENT_3D('',#12,#13,#14);
#12 = CARTESIAN_POINT('',(0.,0.,0.));
#13 = DIRECTION('',(0.,0.,1.));
#14 = DIRECTION('',(1.,0.,-0.));
#15 = MANIFOLD_SOLID_BREP('',#16);
#16 = CLOSED_SHELL('',(#17,#301,#438,#611,#716,#892,#963,#991,#1019,
    #1095,#1149,#1198,#1230,#1237,#1287,#1336,#1368));
#17 = ADVANCED_FACE('',(#18),#33,.T.);
#18 = FACE_BOUND('',#19,.T.);
#19 = EDGE_LOOP('',(#20,#60,#88,#121,#198,#226));
#20 = ORIENTED_EDGE('',*,*,#21,.T.);
#21 = EDGE_CURVE('',#22,#24,#26,.T.);
#22 = VERTEX_POINT('',#23);
#23 = CARTESIAN_POINT('',(-1.599998645782,14.279999704361,0.3));
#24 = VERTEX_POINT('',#25);
#25 = CARTESIAN_POINT('',(-1.699998645782,13.979999704361,0.3));
#26 = SURFACE_CURVE('',#27,(#32,#44),.PCURVE_S1.);
#27 = CIRCLE('',#28,0.5);
#28 = AXIS2_PLACEMENT_3D('',#29,#30,#31);
#29 = CARTESIAN_POINT('',(-1.199998645782,13.979999704361,0.3));
#30 = DIRECTION('',(-1.387778780781E-17,-7.285838599103E-17,1.));
#31 = DIRECTION('',(-0.707106781187,0.707106781187,4.170558093379E-17));
#32 = PCURVE('',#33,#38);
#33 = CYLINDRICAL_SURFACE('',#34,0.5);
#34 = AXIS2_PLACEMENT_3D('',#35,#36,#37);
#35 = CARTESIAN_POINT('',(-1.199998645782,13.979999704361,1.075));
#36 = DIRECTION('',(1.387778780781E-17,3.469446951954E-18,-1.));
#37 = DIRECTION('',(-0.707106781187,0.707106781187,-7.35980840008E-18));
#38 = DEFINITIONAL_REPRESENTATION('',(#39),#43);
#39 = LINE('',#40,#41);
#40 = CARTESIAN_POINT('',(6.28318530718,0.775));
#41 = VECTOR('',#42,1.);
#42 = DIRECTION('',(-1.,0.));
#43 = ( GEOMETRIC_REPRESENTATION_CONTEXT(2) 
PARAMETRIC_REPRESENTATION_CONTEXT() REPRESENTATION_CONTEXT('2D SPACE',''
  ) );
#44 = PCURVE('',#45,#50);
#45 = PLANE('',#46);
#46 = AXIS2_PLACEMENT_3D('',#47,#48,#49);
#47 = CARTESIAN_POINT('',(-1.700000076294,6.479999704361,0.3));
#48 = DIRECTION('',(1.387778780781E-17,7.285838599103E-17,-1.));
#49 = DIRECTION('',(-1.762479051592E-15,1.,7.285838599103E-17));
#50 = DEFINITIONAL_REPRESENTATION('',(#51),#59);
#51 = ( BOUNDED_CURVE() B_SPLINE_CURVE(2,(#52,#53,#54,#55,#56,#57,#58),
.UNSPECIFIED.,.T.,.F.) B_SPLINE_CURVE_WITH_KNOTS((1,2,2,2,2,1),(
    -2.094395102393,0.,2.094395102393,4.188790204786,6.28318530718,
8.377580409573),.UNSPECIFIED.) CURVE() GEOMETRIC_REPRESENTATION_ITEM() 
RATIONAL_B_SPLINE_CURVE((1.,0.5,1.,0.5,1.,0.5,1.)) REPRESENTATION_ITEM(
  '') );
#52 = CARTESIAN_POINT('',(7.853553390593,0.146448039918));
#53 = CARTESIAN_POINT('',(7.241180954897,-0.465924395778));
#54 = CARTESIAN_POINT('',(7.017037086855,0.37059190796));
#55 = CARTESIAN_POINT('',(6.792893218813,1.207108211698));
#56 = CARTESIAN_POINT('',(7.629409522551,0.982964343656));
#57 = CARTESIAN_POINT('',(8.465925826289,0.758820475614));
#58 = CARTESIAN_POINT('',(7.853553390593,0.146448039918));
#59 = ( GEOMETRIC_REPRESENTATION_CONTEXT(2) 
PARAMETRIC_REPRESENTATION_CONTEXT() REPRESENTATION_CONTEXT('2D SPACE',''
  ) );
#60 = ORIENTED_EDGE('',*,*,#61,.T.);
#61 = EDGE_CURVE('',#24,#62,#64,.T.);
#62 = VERTEX_POINT('',#63);
#63 = CARTESIAN_POINT('',(-1.699998645782,13.979999704361,4.6));
#64 = SURFACE_CURVE('',#65,(#69,#76),.PCURVE_S1.);
#65 = LINE('',#66,#67);
#66 = CARTESIAN_POINT('',(-1.699998645782,13.979999704361,1.075));
#67 = VECTOR('',#68,1.);
#68 = DIRECTION('',(-1.387778780781E-17,-3.469446951954E-18,1.));
#69 = PCURVE('',#33,#70);
#70 = DEFINITIONAL_REPRESENTATION('',(#71),#75);
#71 = LINE('',#72,#73);
#72 = CARTESIAN_POINT('',(5.497787143782,0.));
#73 = VECTOR('',#74,1.);
#74 = DIRECTION('',(0.,-1.));
#75 = ( GEOMETRIC_REPRESENTATION_CONTEXT(2) 
PARAMETRIC_REPRESENTATION_CONTEXT() REPRESENTATION_CONTEXT('2D SPACE',''
  ) );
#76 = PCURVE('',#77,#82);
#77 = PLANE('',#78);
#78 = AXIS2_PLACEMENT_3D('',#79,#80,#81);
#79 = CARTESIAN_POINT('',(-1.699998645782,11.681135481638,1.85));
#80 = DIRECTION('',(-1.,-1.762479051592E-15,-1.387778780781E-17));
#81 = DIRECTION('',(1.387778780781E-17,3.469446951954E-18,-1.));
#82 = DEFINITIONAL_REPRESENTATION('',(#83),#87);
#83 = LINE('',#84,#85);
#84 = CARTESIAN_POINT('',(0.775,-2.298864222723));
#85 = VECTOR('',#86,1.);
#86 = DIRECTION('',(-1.,3.851859888774E-34));
#87 = ( GEOMETRIC_REPRESENTATION_CONTEXT(2) 
PARAMETRIC_REPRESENTATION_CONTEXT() REPRESENTATION_CONTEXT('2D SPACE',''
  ) );
#88 = ORIENTED_EDGE('',*,*,#89,.T.);
#89 = EDGE_CURVE('',#62,#90,#92,.T.);
#90 = VERTEX_POINT('',#91);
#91 = CARTESIAN_POINT('',(-1.599998645782,14.279999704361,4.6));
#92 = SURFACE_CURVE('',#93,(#98,#105),.PCURVE_S1.);
#93 = CIRCLE('',#94,0.5);
#94 = AXIS2_PLACEMENT_3D('',#95,#96,#97);
#95 = CARTESIAN_POINT('',(-1.199998645782,13.979999704361,4.6));
#96 = DIRECTION('',(1.387778780781E-17,1.025965027221E-16,-1.));
#97 = DIRECTION('',(-0.707106781187,0.707106781187,6.273360493402E-17));
#98 = PCURVE('',#33,#99);
#99 = DEFINITIONAL_REPRESENTATION('',(#100),#104);
#100 = LINE('',#101,#102);
#101 = CARTESIAN_POINT('',(-5.329070518201E-15,-3.525));
#102 = VECTOR('',#103,1.);
#103 = DIRECTION('',(1.,0.));
#104 = ( GEOMETRIC_REPRESENTATION_CONTEXT(2) 
PARAMETRIC_REPRESENTATION_CONTEXT() REPRESENTATION_CONTEXT('2D SPACE',''
  ) );
#105 = PCURVE('',#106,#111);
#106 = PLANE('',#107);
#107 = AXIS2_PLACEMENT_3D('',#108,#109,#110);
#108 = CARTESIAN_POINT('',(-1.700000076294,13.079999704361,4.6));
#109 = DIRECTION('',(-1.387778780781E-17,-1.025965027221E-16,1.));
#110 = DIRECTION('',(1.762479051592E-15,-1.,-1.025965027221E-16));
#111 = DEFINITIONAL_REPRESENTATION('',(#112),#120);
#112 = ( BOUNDED_CURVE() B_SPLINE_CURVE(2,(#113,#114,#115,#116,#117,#118
,#119),.UNSPECIFIED.,.T.,.F.) B_SPLINE_CURVE_WITH_KNOTS((1,2,2,2,2,1),(
    -2.094395102393,0.,2.094395102393,4.188790204786,6.28318530718,
8.377580409573),.UNSPECIFIED.) CURVE() GEOMETRIC_REPRESENTATION_ITEM() 
RATIONAL_B_SPLINE_CURVE((1.,0.5,1.,0.5,1.,0.5,1.)) REPRESENTATION_ITEM(
  '') );
#113 = CARTESIAN_POINT('',(-1.253553390593,0.146448039918));
#114 = CARTESIAN_POINT('',(-1.865925826289,0.758820475614));
#115 = CARTESIAN_POINT('',(-1.029409522551,0.982964343656));
#116 = CARTESIAN_POINT('',(-0.192893218813,1.207108211698));
#117 = CARTESIAN_POINT('',(-0.417037086855,0.37059190796));
#118 = CARTESIAN_POINT('',(-0.641180954897,-0.465924395778));
#119 = CARTESIAN_POINT('',(-1.253553390593,0.146448039918));
#120 = ( GEOMETRIC_REPRESENTATION_CONTEXT(2) 
PARAMETRIC_REPRESENTATION_CONTEXT() REPRESENTATION_CONTEXT('2D SPACE',''
  ) );
#121 = ORIENTED_EDGE('',*,*,#122,.T.);
#122 = EDGE_CURVE('',#90,#123,#125,.T.);
#123 = VERTEX_POINT('',#124);
#124 = CARTESIAN_POINT('',(-1.199998645782,14.479999704361,4.4));
#125 = SURFACE_CURVE('',#126,(#135,#164),.PCURVE_S1.);
#126 = B_SPLINE_CURVE_WITH_KNOTS('',3,(#127,#128,#129,#130,#131,#132,
    #133,#134),.UNSPECIFIED.,.F.,.F.,(4,2,2,4),(0.112516567301,
    0.123399900041,0.134283232781,0.160980171206),.UNSPECIFIED.);
#127 = CARTESIAN_POINT('',(-1.599998645782,14.279999704361,4.6));
#128 = CARTESIAN_POINT('',(-1.578231980303,14.309021925001,4.6));
#129 = CARTESIAN_POINT('',(-1.551805999873,14.337253407164,
    4.593404090098));
#130 = CARTESIAN_POINT('',(-1.494587116142,14.385748283133,
    4.571877816716));
#131 = CARTESIAN_POINT('',(-1.463822431717,14.405998813864,
    4.556843602971));
#132 = CARTESIAN_POINT('',(-1.3637216865,14.459252006437,4.503590410399)
  );
#133 = CARTESIAN_POINT('',(-1.275208749443,14.479999704361,
    4.447567046125));
#134 = CARTESIAN_POINT('',(-1.199998645782,14.479999704361,4.4));
#135 = PCURVE('',#33,#136);
#136 = DEFINITIONAL_REPRESENTATION('',(#137),#163);
#137 = B_SPLINE_CURVE_WITH_KNOTS('',3,(#138,#139,#140,#141,#142,#143,
    #144,#145,#146,#147,#148,#149,#150,#151,#152,#153,#154,#155,#156,
    #157,#158,#159,#160,#161,#162),.UNSPECIFIED.,.F.,.F.,(4,1,1,1,1,1,1,
    1,1,1,1,1,1,1,1,1,1,1,1,1,1,1,4),(0.112516567301,0.114719458388,
    0.116922349474,0.119125240561,0.121328131648,0.123531022734,
    0.125733913821,0.127936804907,0.130139695994,0.132342587081,
    0.134545478167,0.136748369254,0.13895126034,0.141154151427,
    0.143357042513,0.1455599336,0.147762824687,0.149965715773,
    0.15216860686,0.154371497946,0.156574389033,0.15877728012,
    0.160980171206),.QUASI_UNIFORM_KNOTS.);
#138 = CARTESIAN_POINT('',(6.141288252575,-3.525));
#139 = CARTESIAN_POINT('',(6.155973715969,-3.525));
#140 = CARTESIAN_POINT('',(6.185701095989,-3.524459546905));
#141 = CARTESIAN_POINT('',(6.231049289995,-3.52214824918));
#142 = CARTESIAN_POINT('',(6.276843308168,-3.518457475041));
#143 = CARTESIAN_POINT('',(6.322768575013,-3.513506964528));
#144 = CARTESIAN_POINT('',(6.368521421631,-3.507421663734));
#145 = CARTESIAN_POINT('',(6.413800111105,-3.500306840082));
#146 = CARTESIAN_POINT('',(6.458353823145,-3.492342389974));
#147 = CARTESIAN_POINT('',(6.501863705272,-3.483734752427));
#148 = CARTESIAN_POINT('',(6.544181934762,-3.474637501139));
#149 = CARTESIAN_POINT('',(6.584451184119,-3.465389128462));
#150 = CARTESIAN_POINT('',(6.624530446484,-3.455613600729));
#151 = CARTESIAN_POINT('',(6.665304372742,-3.445140375447));
#152 = CARTESIAN_POINT('',(6.706388974348,-3.434129049522));
#153 = CARTESIAN_POINT('',(6.747723019367,-3.422650759276));
#154 = CARTESIAN_POINT('',(6.789144544822,-3.410800343973));
#155 = CARTESIAN_POINT('',(6.830507773651,-3.39866629169));
#156 = CARTESIAN_POINT('',(6.871655593297,-3.386338792304));
#157 = CARTESIAN_POINT('',(6.91243094543,-3.373907579692));
#158 = CARTESIAN_POINT('',(6.952677651065,-3.361462509919));
#159 = CARTESIAN_POINT('',(6.992244201782,-3.349093406307));
#160 = CARTESIAN_POINT('',(7.030984842537,-3.336890100954));
#161 = CARTESIAN_POINT('',(7.056172398426,-3.328924982717));
#162 = CARTESIAN_POINT('',(7.068583470577,-3.325));
#163 = ( GEOMETRIC_REPRESENTATION_CONTEXT(2) 
PARAMETRIC_REPRESENTATION_CONTEXT() REPRESENTATION_CONTEXT('2D SPACE',''
  ) );
#164 = PCURVE('',#165,#170);
#165 = CYLINDRICAL_SURFACE('',#166,0.2);
#166 = AXIS2_PLACEMENT_3D('',#167,#168,#169);
#167 = CARTESIAN_POINT('',(-1.700000076294,14.279999704361,4.4));
#168 = DIRECTION('',(1.,1.873501354055E-15,1.387778780781E-17));
#169 = DIRECTION('',(-1.334578589881E-15,0.707106781187,0.707106781187)
  );
#170 = DEFINITIONAL_REPRESENTATION('',(#171),#197);
#171 = B_SPLINE_CURVE_WITH_KNOTS('',3,(#172,#173,#174,#175,#176,#177,
    #178,#179,#180,#181,#182,#183,#184,#185,#186,#187,#188,#189,#190,
    #191,#192,#193,#194,#195,#196),.UNSPECIFIED.,.F.,.F.,(4,1,1,1,1,1,1,
    1,1,1,1,1,1,1,1,1,1,1,1,1,1,1,4),(0.112516567301,0.114719458388,
    0.116922349474,0.119125240561,0.121328131648,0.123531022734,
    0.125733913821,0.127936804907,0.130139695994,0.132342587081,
    0.134545478167,0.136748369254,0.13895126034,0.141154151427,
    0.143357042513,0.1455599336,0.147762824687,0.149965715773,
    0.15216860686,0.154371497946,0.156574389033,0.15877728012,
    0.160980171206),.QUASI_UNIFORM_KNOTS.);
#172 = CARTESIAN_POINT('',(7.068583470577,0.100001430511));
#173 = CARTESIAN_POINT('',(7.039222283434,0.104407212685));
#174 = CARTESIAN_POINT('',(6.980782342284,0.113600564904));
#175 = CARTESIAN_POINT('',(6.894211542869,0.128412706586));
#176 = CARTESIAN_POINT('',(6.808931441999,0.144123959114));
#177 = CARTESIAN_POINT('',(6.725284419221,0.160610452831));
#178 = CARTESIAN_POINT('',(6.643673984182,0.177751538919));
#179 = CARTESIAN_POINT('',(6.564458917625,0.195414463364));
#180 = CARTESIAN_POINT('',(6.487655696356,0.213402579449));
#181 = CARTESIAN_POINT('',(6.413562024274,0.231503629536));
#182 = CARTESIAN_POINT('',(6.342273166257,0.249589891023));
#183 = CARTESIAN_POINT('',(6.275118000609,0.267211112086));
#184 = CARTESIAN_POINT('',(6.209060841975,0.285171555971));
#185 = CARTESIAN_POINT('',(6.142464501419,0.303823355483));
#186 = CARTESIAN_POINT('',(6.075806009412,0.322940922171));
#187 = CARTESIAN_POINT('',(6.009075200827,0.34245346753));
#188 = CARTESIAN_POINT('',(5.942460121964,0.36224872453));
#189 = CARTESIAN_POINT('',(5.876149507915,0.382225540283));
#190 = CARTESIAN_POINT('',(5.810369911296,0.402279783872));
#191 = CARTESIAN_POINT('',(5.745358589329,0.422308122344));
#192 = CARTESIAN_POINT('',(5.681353760083,0.442207008928));
#193 = CARTESIAN_POINT('',(5.618579611497,0.461872954149));
#194 = CARTESIAN_POINT('',(5.557240262558,0.481202453175));
#195 = CARTESIAN_POINT('',(5.517408936439,0.49379548793));
#196 = CARTESIAN_POINT('',(5.497787143782,0.500001430512));
#197 = ( GEOMETRIC_REPRESENTATION_CONTEXT(2) 
PARAMETRIC_REPRESENTATION_CONTEXT() REPRESENTATION_CONTEXT('2D SPACE',''
  ) );
#198 = ORIENTED_EDGE('',*,*,#199,.T.);
#199 = EDGE_CURVE('',#123,#200,#202,.T.);
#200 = VERTEX_POINT('',#201);
#201 = CARTESIAN_POINT('',(-1.199998645782,14.479999704361,0.5));
#202 = SURFACE_CURVE('',#203,(#207,#214),.PCURVE_S1.);
#203 = LINE('',#204,#205);
#204 = CARTESIAN_POINT('',(-1.199998645782,14.479999704361,1.075));
#205 = VECTOR('',#206,1.);
#206 = DIRECTION('',(1.387778780781E-17,3.469446951954E-18,-1.));
#207 = PCURVE('',#33,#208);
#208 = DEFINITIONAL_REPRESENTATION('',(#209),#213);
#209 = LINE('',#210,#211);
#210 = CARTESIAN_POINT('',(7.068583470577,0.));
#211 = VECTOR('',#212,1.);
#212 = DIRECTION('',(0.,1.));
#213 = ( GEOMETRIC_REPRESENTATION_CONTEXT(2) 
PARAMETRIC_REPRESENTATION_CONTEXT() REPRESENTATION_CONTEXT('2D SPACE',''
  ) );
#214 = PCURVE('',#215,#220);
#215 = PLANE('',#216);
#216 = AXIS2_PLACEMENT_3D('',#217,#218,#219);
#217 = CARTESIAN_POINT('',(-1.700000076294,14.479999704361,0.3));
#218 = DIRECTION('',(-1.873501354055E-15,1.,3.469446951953E-18));
#219 = DIRECTION('',(-1.387778780781E-17,-3.469446951954E-18,1.));
#220 = DEFINITIONAL_REPRESENTATION('',(#221),#225);
#221 = LINE('',#222,#223);
#222 = CARTESIAN_POINT('',(0.775,0.500001430512));
#223 = VECTOR('',#224,1.);
#224 = DIRECTION('',(-1.,4.276423536147E-50));
#225 = ( GEOMETRIC_REPRESENTATION_CONTEXT(2) 
PARAMETRIC_REPRESENTATION_CONTEXT() REPRESENTATION_CONTEXT('2D SPACE',''
  ) );
#226 = ORIENTED_EDGE('',*,*,#227,.T.);
#227 = EDGE_CURVE('',#200,#22,#228,.T.);
#228 = SURFACE_CURVE('',#229,(#238,#267),.PCURVE_S1.);
#229 = B_SPLINE_CURVE_WITH_KNOTS('',3,(#230,#231,#232,#233,#234,#235,
    #236,#237),.UNSPECIFIED.,.F.,.F.,(4,2,2,4),(0.,2.526737370402E-02,
    3.790106055603E-02,5.053474740805E-02),.UNSPECIFIED.);
#230 = CARTESIAN_POINT('',(-1.199998645782,14.479999704361,0.5));
#231 = CARTESIAN_POINT('',(-1.271181407088,14.479999704361,
    0.454980068827));
#232 = CARTESIAN_POINT('',(-1.347043494231,14.464095661626,
    0.406729123919));
#233 = CARTESIAN_POINT('',(-1.451507836015,14.413861815633,
    0.349240829922));
#234 = CARTESIAN_POINT('',(-1.484743737334,14.392899261126,
    0.332563594363));
#235 = CARTESIAN_POINT('',(-1.546381893111,14.342778632433,
    0.308079918842));
#236 = CARTESIAN_POINT('',(-1.574731272078,14.313689535966,0.3));
#237 = CARTESIAN_POINT('',(-1.599998645782,14.279999704361,0.3));
#238 = PCURVE('',#33,#239);
#239 = DEFINITIONAL_REPRESENTATION('',(#240),#266);
#240 = B_SPLINE_CURVE_WITH_KNOTS('',3,(#241,#242,#243,#244,#245,#246,
    #247,#248,#249,#250,#251,#252,#253,#254,#255,#256,#257,#258,#259,
    #260,#261,#262,#263,#264,#265),.UNSPECIFIED.,.F.,.F.,(4,1,1,1,1,1,1,
    1,1,1,1,1,1,1,1,1,1,1,1,1,1,1,4),(0.,2.297033973093E-03,
    4.594067946186E-03,6.891101919279E-03,9.188135892372E-03,
    1.148516986546E-02,1.378220383856E-02,1.607923781165E-02,
    1.837627178474E-02,2.067330575784E-02,2.297033973093E-02,
    2.526737370402E-02,2.756440767712E-02,2.986144165021E-02,
    3.21584756233E-02,3.445550959639E-02,3.675254356949E-02,
    3.904957754258E-02,4.134661151567E-02,4.364364548877E-02,
    4.594067946186E-02,4.823771343495E-02,5.053474740805E-02),
  .QUASI_UNIFORM_KNOTS.);
#241 = CARTESIAN_POINT('',(7.068583470577,0.575));
#242 = CARTESIAN_POINT('',(7.055641212301,0.579092721016));
#243 = CARTESIAN_POINT('',(7.029601751312,0.587331568233));
#244 = CARTESIAN_POINT('',(6.990110895146,0.599790746895));
#245 = CARTESIAN_POINT('',(6.950221435876,0.612291525676));
#246 = CARTESIAN_POINT('',(6.909966809746,0.624774596842));
#247 = CARTESIAN_POINT('',(6.869379627439,0.637180652725));
#248 = CARTESIAN_POINT('',(6.828490898065,0.649450385409));
#249 = CARTESIAN_POINT('',(6.78732904748,0.6615244879));
#250 = CARTESIAN_POINT('',(6.745919243488,0.673343649767));
#251 = CARTESIAN_POINT('',(6.704281706977,0.684848573411));
#252 = CARTESIAN_POINT('',(6.662433873704,0.695979913334));
#253 = CARTESIAN_POINT('',(6.620378351007,0.706678502805));
#254 = CARTESIAN_POINT('',(6.578144094077,0.716884507924));
#255 = CARTESIAN_POINT('',(6.535738908412,0.726527089662));
#256 = CARTESIAN_POINT('',(6.493135908646,0.735536054243));
#257 = CARTESIAN_POINT('',(6.450315335695,0.743841105821));
#258 = CARTESIAN_POINT('',(6.407252950935,0.751371711578));
#259 = CARTESIAN_POINT('',(6.363923676999,0.758058388648));
#260 = CARTESIAN_POINT('',(6.320317600304,0.763859502025));
#261 = CARTESIAN_POINT('',(6.276348835693,0.768620330673));
#262 = CARTESIAN_POINT('',(6.23193528832,0.772203177083));
#263 = CARTESIAN_POINT('',(6.186986949715,0.77446578074));
#264 = CARTESIAN_POINT('',(6.156601526476,0.775));
#265 = CARTESIAN_POINT('',(6.141288252575,0.775));
#266 = ( GEOMETRIC_REPRESENTATION_CONTEXT(2) 
PARAMETRIC_REPRESENTATION_CONTEXT() REPRESENTATION_CONTEXT('2D SPACE',''
  ) );
#267 = PCURVE('',#268,#273);
#268 = CYLINDRICAL_SURFACE('',#269,0.2);
#269 = AXIS2_PLACEMENT_3D('',#270,#271,#272);
#270 = CARTESIAN_POINT('',(-1.700000076294,14.279999704361,0.5));
#271 = DIRECTION('',(-1.,-1.873501354055E-15,-1.387778780781E-17));
#272 = DIRECTION('',(-1.314952434148E-15,0.707106781187,-0.707106781187)
  );
#273 = DEFINITIONAL_REPRESENTATION('',(#274),#300);
#274 = B_SPLINE_CURVE_WITH_KNOTS('',3,(#275,#276,#277,#278,#279,#280,
    #281,#282,#283,#284,#285,#286,#287,#288,#289,#290,#291,#292,#293,
    #294,#295,#296,#297,#298,#299),.UNSPECIFIED.,.F.,.F.,(4,1,1,1,1,1,1,
    1,1,1,1,1,1,1,1,1,1,1,1,1,1,1,4),(0.,2.297033973093E-03,
    4.594067946186E-03,6.891101919279E-03,9.188135892372E-03,
    1.148516986546E-02,1.378220383856E-02,1.607923781165E-02,
    1.837627178474E-02,2.067330575784E-02,2.297033973093E-02,
    2.526737370402E-02,2.756440767712E-02,2.986144165021E-02,
    3.21584756233E-02,3.445550959639E-02,3.675254356949E-02,
    3.904957754258E-02,4.134661151567E-02,4.364364548877E-02,
    4.594067946186E-02,4.823771343495E-02,5.053474740805E-02),
  .QUASI_UNIFORM_KNOTS.);
#275 = CARTESIAN_POINT('',(5.497787143782,-0.500001430512));
#276 = CARTESIAN_POINT('',(5.518250565953,-0.493530270393));
#277 = CARTESIAN_POINT('',(5.559445262025,-0.480510605926));
#278 = CARTESIAN_POINT('',(5.622001899307,-0.460798205854));
#279 = CARTESIAN_POINT('',(5.685283874766,-0.440952031694));
#280 = CARTESIAN_POINT('',(5.749252958851,-0.421021212856));
#281 = CARTESIAN_POINT('',(5.813878080573,-0.401054878267));
#282 = CARTESIAN_POINT('',(5.879140102833,-0.381102158668));
#283 = CARTESIAN_POINT('',(5.945036931886,-0.361212178026));
#284 = CARTESIAN_POINT('',(6.011587360333,-0.341434085584));
#285 = CARTESIAN_POINT('',(6.078837380212,-0.321816936259));
#286 = CARTESIAN_POINT('',(6.146854730852,-0.302410137));
#287 = CARTESIAN_POINT('',(6.21576408441,-0.283261780949));
#288 = CARTESIAN_POINT('',(6.285626722897,-0.264424864444));
#289 = CARTESIAN_POINT('',(6.356429996804,-0.245933230196));
#290 = CARTESIAN_POINT('',(6.428294373016,-0.227815828791));
#291 = CARTESIAN_POINT('',(6.501354371023,-0.210102885884));
#292 = CARTESIAN_POINT('',(6.57579087742,-0.192824418985));
#293 = CARTESIAN_POINT('',(6.651825683213,-0.176010003112));
#294 = CARTESIAN_POINT('',(6.729735924712,-0.159698070071));
#295 = CARTESIAN_POINT('',(6.809793726181,-0.143908692636));
#296 = CARTESIAN_POINT('',(6.89243700512,-0.12866449081));
#297 = CARTESIAN_POINT('',(6.978218903666,-0.113987401834));
#298 = CARTESIAN_POINT('',(7.037963118562,-0.104595498458));
#299 = CARTESIAN_POINT('',(7.068583470577,-0.100001430511));
#300 = ( GEOMETRIC_REPRESENTATION_CONTEXT(2) 
PARAMETRIC_REPRESENTATION_CONTEXT() REPRESENTATION_CONTEXT('2D SPACE',''
  ) );
#301 = ADVANCED_FACE('',(#302),#106,.T.);
#302 = FACE_BOUND('',#303,.T.);
#303 = EDGE_LOOP('',(#304,#305,#328,#361,#389,#417));
#304 = ORIENTED_EDGE('',*,*,#89,.F.);
#305 = ORIENTED_EDGE('',*,*,#306,.F.);
#306 = EDGE_CURVE('',#307,#62,#309,.T.);
#307 = VERTEX_POINT('',#308);
#308 = CARTESIAN_POINT('',(-1.699998645782,5.579999704361,4.6));
#309 = SURFACE_CURVE('',#310,(#314,#321),.PCURVE_S1.);
#310 = LINE('',#311,#312);
#311 = CARTESIAN_POINT('',(-1.699998645782,6.979999704361,4.6));
#312 = VECTOR('',#313,1.);
#313 = DIRECTION('',(-1.762479051592E-15,1.,1.025965027221E-16));
#314 = PCURVE('',#106,#315);
#315 = DEFINITIONAL_REPRESENTATION('',(#316),#320);
#316 = LINE('',#317,#318);
#317 = CARTESIAN_POINT('',(6.1,1.430511503708E-06));
#318 = VECTOR('',#319,1.);
#319 = DIRECTION('',(-1.,-1.090924371466E-48));
#320 = ( GEOMETRIC_REPRESENTATION_CONTEXT(2) 
PARAMETRIC_REPRESENTATION_CONTEXT() REPRESENTATION_CONTEXT('2D SPACE',''
  ) );
#321 = PCURVE('',#77,#322);
#322 = DEFINITIONAL_REPRESENTATION('',(#323),#327);
#323 = LINE('',#324,#325);
#324 = CARTESIAN_POINT('',(-2.75,4.701135777277));
#325 = VECTOR('',#326,1.);
#326 = DIRECTION('',(-9.91270557701E-17,-1.));
#327 = ( GEOMETRIC_REPRESENTATION_CONTEXT(2) 
PARAMETRIC_REPRESENTATION_CONTEXT() REPRESENTATION_CONTEXT('2D SPACE',''
  ) );
#328 = ORIENTED_EDGE('',*,*,#329,.F.);
#329 = EDGE_CURVE('',#330,#307,#332,.T.);
#330 = VERTEX_POINT('',#331);
#331 = CARTESIAN_POINT('',(-1.599998645782,5.279999704361,4.6));
#332 = SURFACE_CURVE('',#333,(#338,#349),.PCURVE_S1.);
#333 = CIRCLE('',#334,0.5);
#334 = AXIS2_PLACEMENT_3D('',#335,#336,#337);
#335 = CARTESIAN_POINT('',(-1.199998645782,5.579999704361,4.6));
#336 = DIRECTION('',(1.387778780781E-17,1.025965027221E-16,-1.));
#337 = DIRECTION('',(-0.707106781187,-0.707106781187,-8.235976066756E-17
    ));
#338 = PCURVE('',#106,#339);
#339 = DEFINITIONAL_REPRESENTATION('',(#340),#348);
#340 = ( BOUNDED_CURVE() B_SPLINE_CURVE(2,(#341,#342,#343,#344,#345,#346
,#347),.UNSPECIFIED.,.T.,.F.) B_SPLINE_CURVE_WITH_KNOTS((1,2,2,2,2,1),(
    -2.094395102393,0.,2.094395102393,4.188790204786,6.28318530718,
8.377580409573),.UNSPECIFIED.) CURVE() GEOMETRIC_REPRESENTATION_ITEM() 
RATIONAL_B_SPLINE_CURVE((1.,0.5,1.,0.5,1.,0.5,1.)) REPRESENTATION_ITEM(
  '') );
#341 = CARTESIAN_POINT('',(7.853553390593,0.146448039918));
#342 = CARTESIAN_POINT('',(7.241180954897,-0.465924395778));
#343 = CARTESIAN_POINT('',(7.017037086855,0.37059190796));
#344 = CARTESIAN_POINT('',(6.792893218813,1.207108211698));
#345 = CARTESIAN_POINT('',(7.629409522551,0.982964343656));
#346 = CARTESIAN_POINT('',(8.465925826289,0.758820475614));
#347 = CARTESIAN_POINT('',(7.853553390593,0.146448039918));
#348 = ( GEOMETRIC_REPRESENTATION_CONTEXT(2) 
PARAMETRIC_REPRESENTATION_CONTEXT() REPRESENTATION_CONTEXT('2D SPACE',''
  ) );
#349 = PCURVE('',#350,#355);
#350 = CYLINDRICAL_SURFACE('',#351,0.5);
#351 = AXIS2_PLACEMENT_3D('',#352,#353,#354);
#352 = CARTESIAN_POINT('',(-1.199998645782,5.579999704361,3.225));
#353 = DIRECTION('',(1.387778780781E-17,3.469446951954E-18,-1.));
#354 = DIRECTION('',(-0.707106781187,-0.707106781187,-1.226634733347E-17
    ));
#355 = DEFINITIONAL_REPRESENTATION('',(#356),#360);
#356 = LINE('',#357,#358);
#357 = CARTESIAN_POINT('',(6.28318530718,-1.375));
#358 = VECTOR('',#359,1.);
#359 = DIRECTION('',(1.,0.));
#360 = ( GEOMETRIC_REPRESENTATION_CONTEXT(2) 
PARAMETRIC_REPRESENTATION_CONTEXT() REPRESENTATION_CONTEXT('2D SPACE',''
  ) );
#361 = ORIENTED_EDGE('',*,*,#362,.F.);
#362 = EDGE_CURVE('',#363,#330,#365,.T.);
#363 = VERTEX_POINT('',#364);
#364 = CARTESIAN_POINT('',(-0.900000076294,5.279999704361,4.6));
#365 = SURFACE_CURVE('',#366,(#370,#377),.PCURVE_S1.);
#366 = LINE('',#367,#368);
#367 = CARTESIAN_POINT('',(-1.700000076294,5.279999704361,4.6));
#368 = VECTOR('',#369,1.);
#369 = DIRECTION('',(-1.,-1.873501354055E-15,-1.387778780781E-17));
#370 = PCURVE('',#106,#371);
#371 = DEFINITIONAL_REPRESENTATION('',(#372),#376);
#372 = LINE('',#373,#374);
#373 = CARTESIAN_POINT('',(7.8,8.659739592076E-16));
#374 = VECTOR('',#375,1.);
#375 = DIRECTION('',(1.110223024625E-16,-1.));
#376 = ( GEOMETRIC_REPRESENTATION_CONTEXT(2) 
PARAMETRIC_REPRESENTATION_CONTEXT() REPRESENTATION_CONTEXT('2D SPACE',''
  ) );
#377 = PCURVE('',#378,#383);
#378 = CYLINDRICAL_SURFACE('',#379,0.2);
#379 = AXIS2_PLACEMENT_3D('',#380,#381,#382);
#380 = CARTESIAN_POINT('',(-1.700000076294,5.279999704361,4.4));
#381 = DIRECTION('',(1.,1.873501354055E-15,1.387778780781E-17));
#382 = DIRECTION('',(1.314952434148E-15,-0.707106781187,0.707106781187)
  );
#383 = DEFINITIONAL_REPRESENTATION('',(#384),#388);
#384 = LINE('',#385,#386);
#385 = CARTESIAN_POINT('',(-0.785398163397,0.));
#386 = VECTOR('',#387,1.);
#387 = DIRECTION('',(0.,-1.));
#388 = ( GEOMETRIC_REPRESENTATION_CONTEXT(2) 
PARAMETRIC_REPRESENTATION_CONTEXT() REPRESENTATION_CONTEXT('2D SPACE',''
  ) );
#389 = ORIENTED_EDGE('',*,*,#390,.F.);
#390 = EDGE_CURVE('',#391,#363,#393,.T.);
#391 = VERTEX_POINT('',#392);
#392 = CARTESIAN_POINT('',(-0.900000076294,14.279999704361,4.6));
#393 = SURFACE_CURVE('',#394,(#398,#405),.PCURVE_S1.);
#394 = LINE('',#395,#396);
#395 = CARTESIAN_POINT('',(-0.900000076294,6.979999704361,4.6));
#396 = VECTOR('',#397,1.);
#397 = DIRECTION('',(1.762479051592E-15,-1.,-1.025965027221E-16));
#398 = PCURVE('',#106,#399);
#399 = DEFINITIONAL_REPRESENTATION('',(#400),#404);
#400 = LINE('',#401,#402);
#401 = CARTESIAN_POINT('',(6.1,0.8));
#402 = VECTOR('',#403,1.);
#403 = DIRECTION('',(1.,1.090924371466E-48));
#404 = ( GEOMETRIC_REPRESENTATION_CONTEXT(2) 
PARAMETRIC_REPRESENTATION_CONTEXT() REPRESENTATION_CONTEXT('2D SPACE',''
  ) );
#405 = PCURVE('',#406,#411);
#406 = PLANE('',#407);
#407 = AXIS2_PLACEMENT_3D('',#408,#409,#410);
#408 = CARTESIAN_POINT('',(-0.900000076294,11.681135481638,1.85));
#409 = DIRECTION('',(-1.,-1.773917384512E-15,-1.387778780781E-17));
#410 = DIRECTION('',(1.387778780781E-17,3.469446951954E-18,-1.));
#411 = DEFINITIONAL_REPRESENTATION('',(#412),#416);
#412 = LINE('',#413,#414);
#413 = CARTESIAN_POINT('',(-2.75,4.701135777277));
#414 = VECTOR('',#415,1.);
#415 = DIRECTION('',(9.91270557701E-17,1.));
#416 = ( GEOMETRIC_REPRESENTATION_CONTEXT(2) 
PARAMETRIC_REPRESENTATION_CONTEXT() REPRESENTATION_CONTEXT('2D SPACE',''
  ) );
#417 = ORIENTED_EDGE('',*,*,#418,.F.);
#418 = EDGE_CURVE('',#90,#391,#419,.T.);
#419 = SURFACE_CURVE('',#420,(#424,#431),.PCURVE_S1.);
#420 = LINE('',#421,#422);
#421 = CARTESIAN_POINT('',(-1.700000076294,14.279999704361,4.6));
#422 = VECTOR('',#423,1.);
#423 = DIRECTION('',(1.,1.873501354055E-15,1.387778780781E-17));
#424 = PCURVE('',#106,#425);
#425 = DEFINITIONAL_REPRESENTATION('',(#426),#430);
#426 = LINE('',#427,#428);
#427 = CARTESIAN_POINT('',(-1.2,-1.33226762955E-16));
#428 = VECTOR('',#429,1.);
#429 = DIRECTION('',(-1.110223024625E-16,1.));
#430 = ( GEOMETRIC_REPRESENTATION_CONTEXT(2) 
PARAMETRIC_REPRESENTATION_CONTEXT() REPRESENTATION_CONTEXT('2D SPACE',''
  ) );
#431 = PCURVE('',#165,#432);
#432 = DEFINITIONAL_REPRESENTATION('',(#433),#437);
#433 = LINE('',#434,#435);
#434 = CARTESIAN_POINT('',(7.068583470577,0.));
#435 = VECTOR('',#436,1.);
#436 = DIRECTION('',(0.,1.));
#437 = ( GEOMETRIC_REPRESENTATION_CONTEXT(2) 
PARAMETRIC_REPRESENTATION_CONTEXT() REPRESENTATION_CONTEXT('2D SPACE',''
  ) );
#438 = ADVANCED_FACE('',(#439,#487),#77,.T.);
#439 = FACE_BOUND('',#440,.T.);
#440 = EDGE_LOOP('',(#441,#442,#465,#486));
#441 = ORIENTED_EDGE('',*,*,#61,.F.);
#442 = ORIENTED_EDGE('',*,*,#443,.T.);
#443 = EDGE_CURVE('',#24,#444,#446,.T.);
#444 = VERTEX_POINT('',#445);
#445 = CARTESIAN_POINT('',(-1.699998645782,5.579999704361,0.3));
#446 = SURFACE_CURVE('',#447,(#451,#458),.PCURVE_S1.);
#447 = LINE('',#448,#449);
#448 = CARTESIAN_POINT('',(-1.699998645782,13.079999704361,0.3));
#449 = VECTOR('',#450,1.);
#450 = DIRECTION('',(1.762479051592E-15,-1.,-7.285838599103E-17));
#451 = PCURVE('',#77,#452);
#452 = DEFINITIONAL_REPRESENTATION('',(#453),#457);
#453 = LINE('',#454,#455);
#454 = CARTESIAN_POINT('',(1.55,-1.398864222723));
#455 = VECTOR('',#456,1.);
#456 = DIRECTION('',(6.938893903907E-17,1.));
#457 = ( GEOMETRIC_REPRESENTATION_CONTEXT(2) 
PARAMETRIC_REPRESENTATION_CONTEXT() REPRESENTATION_CONTEXT('2D SPACE',''
  ) );
#458 = PCURVE('',#45,#459);
#459 = DEFINITIONAL_REPRESENTATION('',(#460),#464);
#460 = LINE('',#461,#462);
#461 = CARTESIAN_POINT('',(6.6,1.430511502298E-06));
#462 = VECTOR('',#463,1.);
#463 = DIRECTION('',(-1.,5.345529420184E-49));
#464 = ( GEOMETRIC_REPRESENTATION_CONTEXT(2) 
PARAMETRIC_REPRESENTATION_CONTEXT() REPRESENTATION_CONTEXT('2D SPACE',''
  ) );
#465 = ORIENTED_EDGE('',*,*,#466,.F.);
#466 = EDGE_CURVE('',#307,#444,#467,.T.);
#467 = SURFACE_CURVE('',#468,(#472,#479),.PCURVE_S1.);
#468 = LINE('',#469,#470);
#469 = CARTESIAN_POINT('',(-1.699998645782,5.579999704361,3.225));
#470 = VECTOR('',#471,1.);
#471 = DIRECTION('',(1.387778780781E-17,3.469446951954E-18,-1.));
#472 = PCURVE('',#77,#473);
#473 = DEFINITIONAL_REPRESENTATION('',(#474),#478);
#474 = LINE('',#475,#476);
#475 = CARTESIAN_POINT('',(-1.375,6.101135777277));
#476 = VECTOR('',#477,1.);
#477 = DIRECTION('',(1.,-3.851859888774E-34));
#478 = ( GEOMETRIC_REPRESENTATION_CONTEXT(2) 
PARAMETRIC_REPRESENTATION_CONTEXT() REPRESENTATION_CONTEXT('2D SPACE',''
  ) );
#479 = PCURVE('',#350,#480);
#480 = DEFINITIONAL_REPRESENTATION('',(#481),#485);
#481 = LINE('',#482,#483);
#482 = CARTESIAN_POINT('',(7.068583470577,0.));
#483 = VECTOR('',#484,1.);
#484 = DIRECTION('',(0.,1.));
#485 = ( GEOMETRIC_REPRESENTATION_CONTEXT(2) 
PARAMETRIC_REPRESENTATION_CONTEXT() REPRESENTATION_CONTEXT('2D SPACE',''
  ) );
#486 = ORIENTED_EDGE('',*,*,#306,.T.);
#487 = FACE_BOUND('',#488,.T.);
#488 = EDGE_LOOP('',(#489,#519,#552,#580));
#489 = ORIENTED_EDGE('',*,*,#490,.T.);
#490 = EDGE_CURVE('',#491,#493,#495,.T.);
#491 = VERTEX_POINT('',#492);
#492 = CARTESIAN_POINT('',(-1.699998645782,12.329999704361,3.6));
#493 = VERTEX_POINT('',#494);
#494 = CARTESIAN_POINT('',(-1.699998645782,7.229999704361,3.6));
#495 = SURFACE_CURVE('',#496,(#500,#507),.PCURVE_S1.);
#496 = LINE('',#497,#498);
#497 = CARTESIAN_POINT('',(-1.699998645782,10.080567592999,3.6));
#498 = VECTOR('',#499,1.);
#499 = DIRECTION('',(1.762479051592E-15,-1.,-2.169738747645E-16));
#500 = PCURVE('',#77,#501);
#501 = DEFINITIONAL_REPRESENTATION('',(#502),#506);
#502 = LINE('',#503,#504);
#503 = CARTESIAN_POINT('',(-1.75,1.600567888639));
#504 = VECTOR('',#505,1.);
#505 = DIRECTION('',(2.135044278125E-16,1.));
#506 = ( GEOMETRIC_REPRESENTATION_CONTEXT(2) 
PARAMETRIC_REPRESENTATION_CONTEXT() REPRESENTATION_CONTEXT('2D SPACE',''
  ) );
#507 = PCURVE('',#508,#513);
#508 = PLANE('',#509);
#509 = AXIS2_PLACEMENT_3D('',#510,#511,#512);
#510 = CARTESIAN_POINT('',(-1.699998645782,8.479999704361,3.6));
#511 = DIRECTION('',(-1.387778780781E-17,-2.169738747645E-16,1.));
#512 = DIRECTION('',(-1.762479051592E-15,1.,2.169738747645E-16));
#513 = DEFINITIONAL_REPRESENTATION('',(#514),#518);
#514 = LINE('',#515,#516);
#515 = CARTESIAN_POINT('',(1.600567888639,1.776987322442E-16));
#516 = VECTOR('',#517,1.);
#517 = DIRECTION('',(-1.,-5.060856255796E-48));
#518 = ( GEOMETRIC_REPRESENTATION_CONTEXT(2) 
PARAMETRIC_REPRESENTATION_CONTEXT() REPRESENTATION_CONTEXT('2D SPACE',''
  ) );
#519 = ORIENTED_EDGE('',*,*,#520,.T.);
#520 = EDGE_CURVE('',#493,#521,#523,.T.);
#521 = VERTEX_POINT('',#522);
#522 = CARTESIAN_POINT('',(-1.699998645782,7.229999704361,1.3));
#523 = SURFACE_CURVE('',#524,(#529,#540),.PCURVE_S1.);
#524 = CIRCLE('',#525,1.15);
#525 = AXIS2_PLACEMENT_3D('',#526,#527,#528);
#526 = CARTESIAN_POINT('',(-1.699998645782,7.229999704361,2.45));
#527 = DIRECTION('',(1.,1.762479051592E-15,1.387778780781E-17));
#528 = DIRECTION('',(1.256073966947E-15,-0.707106781187,-0.707106781187)
  );
#529 = PCURVE('',#77,#530);
#530 = DEFINITIONAL_REPRESENTATION('',(#531),#539);
#531 = ( BOUNDED_CURVE() B_SPLINE_CURVE(2,(#532,#533,#534,#535,#536,#537
,#538),.UNSPECIFIED.,.T.,.F.) B_SPLINE_CURVE_WITH_KNOTS((1,2,2,2,2,1),(
    -2.094395102393,0.,2.094395102393,4.188790204786,6.28318530718,
8.377580409573),.UNSPECIFIED.) CURVE() GEOMETRIC_REPRESENTATION_ITEM() 
RATIONAL_B_SPLINE_CURVE((1.,0.5,1.,0.5,1.,0.5,1.)) REPRESENTATION_ITEM(
  '') );
#532 = CARTESIAN_POINT('',(0.213172798365,5.264308575642));
#533 = CARTESIAN_POINT('',(1.621629400465,3.855851973541));
#534 = CARTESIAN_POINT('',(-0.302358098132,3.340321077045));
#535 = CARTESIAN_POINT('',(-2.226345596729,2.824790180548));
#536 = CARTESIAN_POINT('',(-1.710814700232,4.748777679145));
#537 = CARTESIAN_POINT('',(-1.195283803736,6.672765177742));
#538 = CARTESIAN_POINT('',(0.213172798365,5.264308575642));
#539 = ( GEOMETRIC_REPRESENTATION_CONTEXT(2) 
PARAMETRIC_REPRESENTATION_CONTEXT() REPRESENTATION_CONTEXT('2D SPACE',''
  ) );
#540 = PCURVE('',#541,#546);
#541 = CYLINDRICAL_SURFACE('',#542,1.15);
#542 = AXIS2_PLACEMENT_3D('',#543,#544,#545);
#543 = CARTESIAN_POINT('',(-1.699998645782,7.229999704361,2.45));
#544 = DIRECTION('',(-1.,-1.873501354055E-15,-1.387778780781E-17));
#545 = DIRECTION('',(1.334578589881E-15,-0.707106781187,-0.707106781187)
  );
#546 = DEFINITIONAL_REPRESENTATION('',(#547),#551);
#547 = LINE('',#548,#549);
#548 = CARTESIAN_POINT('',(6.28318530718,0.));
#549 = VECTOR('',#550,1.);
#550 = DIRECTION('',(-1.,0.));
#551 = ( GEOMETRIC_REPRESENTATION_CONTEXT(2) 
PARAMETRIC_REPRESENTATION_CONTEXT() REPRESENTATION_CONTEXT('2D SPACE',''
  ) );
#552 = ORIENTED_EDGE('',*,*,#553,.T.);
#553 = EDGE_CURVE('',#521,#554,#556,.T.);
#554 = VERTEX_POINT('',#555);
#555 = CARTESIAN_POINT('',(-1.699998645782,12.329999704361,1.3));
#556 = SURFACE_CURVE('',#557,(#561,#568),.PCURVE_S1.);
#557 = LINE('',#558,#559);
#558 = CARTESIAN_POINT('',(-1.699998645782,11.380567592999,1.3));
#559 = VECTOR('',#560,1.);
#560 = DIRECTION('',(-1.762479051592E-15,1.,1.635977678114E-16));
#561 = PCURVE('',#77,#562);
#562 = DEFINITIONAL_REPRESENTATION('',(#563),#567);
#563 = LINE('',#564,#565);
#564 = CARTESIAN_POINT('',(0.55,0.300567888638));
#565 = VECTOR('',#566,1.);
#566 = DIRECTION('',(-1.601283208594E-16,-1.));
#567 = ( GEOMETRIC_REPRESENTATION_CONTEXT(2) 
PARAMETRIC_REPRESENTATION_CONTEXT() REPRESENTATION_CONTEXT('2D SPACE',''
  ) );
#568 = PCURVE('',#569,#574);
#569 = PLANE('',#570);
#570 = AXIS2_PLACEMENT_3D('',#571,#572,#573);
#571 = CARTESIAN_POINT('',(-1.699998645782,11.079999704361,1.3));
#572 = DIRECTION('',(1.387778780781E-17,1.635977678114E-16,-1.));
#573 = DIRECTION('',(1.762479051592E-15,-1.,-1.635977678114E-16));
#574 = DEFINITIONAL_REPRESENTATION('',(#575),#579);
#575 = LINE('',#576,#577);
#576 = CARTESIAN_POINT('',(-0.300567888639,3.336973904294E-17));
#577 = VECTOR('',#578,1.);
#578 = DIRECTION('',(-1.,2.846731643885E-48));
#579 = ( GEOMETRIC_REPRESENTATION_CONTEXT(2) 
PARAMETRIC_REPRESENTATION_CONTEXT() REPRESENTATION_CONTEXT('2D SPACE',''
  ) );
#580 = ORIENTED_EDGE('',*,*,#581,.T.);
#581 = EDGE_CURVE('',#554,#491,#582,.T.);
#582 = SURFACE_CURVE('',#583,(#588,#599),.PCURVE_S1.);
#583 = CIRCLE('',#584,1.15);
#584 = AXIS2_PLACEMENT_3D('',#585,#586,#587);
#585 = CARTESIAN_POINT('',(-1.699998645782,12.329999704361,2.45));
#586 = DIRECTION('',(1.,1.762479051592E-15,1.387778780781E-17));
#587 = DIRECTION('',(-1.256073966947E-15,0.707106781187,0.707106781187)
  );
#588 = PCURVE('',#77,#589);
#589 = DEFINITIONAL_REPRESENTATION('',(#590),#598);
#590 = ( BOUNDED_CURVE() B_SPLINE_CURVE(2,(#591,#592,#593,#594,#595,#596
,#597),.UNSPECIFIED.,.T.,.F.) B_SPLINE_CURVE_WITH_KNOTS((1,2,2,2,2,1),(
    -2.094395102393,0.,2.094395102393,4.188790204786,6.28318530718,
8.377580409573),.UNSPECIFIED.) CURVE() GEOMETRIC_REPRESENTATION_ITEM() 
RATIONAL_B_SPLINE_CURVE((1.,0.5,1.,0.5,1.,0.5,1.)) REPRESENTATION_ITEM(
  '') );
#591 = CARTESIAN_POINT('',(-1.413172798365,-1.462037021088));
#592 = CARTESIAN_POINT('',(-2.821629400465,-5.35804189872E-02));
#593 = CARTESIAN_POINT('',(-0.897641901868,0.461950477509));
#594 = CARTESIAN_POINT('',(1.026345596729,0.977481374006));
#595 = CARTESIAN_POINT('',(0.510814700232,-0.946506124591));
#596 = CARTESIAN_POINT('',(-4.716196264198E-03,-2.870493623188));
#597 = CARTESIAN_POINT('',(-1.413172798365,-1.462037021088));
#598 = ( GEOMETRIC_REPRESENTATION_CONTEXT(2) 
PARAMETRIC_REPRESENTATION_CONTEXT() REPRESENTATION_CONTEXT('2D SPACE',''
  ) );
#599 = PCURVE('',#600,#605);
#600 = CYLINDRICAL_SURFACE('',#601,1.15);
#601 = AXIS2_PLACEMENT_3D('',#602,#603,#604);
#602 = CARTESIAN_POINT('',(-1.699998645782,12.329999704361,2.45));
#603 = DIRECTION('',(-1.,-1.873501354055E-15,-1.387778780781E-17));
#604 = DIRECTION('',(-1.314952434148E-15,0.707106781187,-0.707106781187)
  );
#605 = DEFINITIONAL_REPRESENTATION('',(#606),#610);
#606 = LINE('',#607,#608);
#607 = CARTESIAN_POINT('',(10.995574287564,0.));
#608 = VECTOR('',#609,1.);
#609 = DIRECTION('',(-1.,0.));
#610 = ( GEOMETRIC_REPRESENTATION_CONTEXT(2) 
PARAMETRIC_REPRESENTATION_CONTEXT() REPRESENTATION_CONTEXT('2D SPACE',''
  ) );
#611 = ADVANCED_FACE('',(#612),#45,.T.);
#612 = FACE_BOUND('',#613,.T.);
#613 = EDGE_LOOP('',(#614,#615,#638,#661,#689,#715));
#614 = ORIENTED_EDGE('',*,*,#21,.F.);
#615 = ORIENTED_EDGE('',*,*,#616,.F.);
#616 = EDGE_CURVE('',#617,#22,#619,.T.);
#617 = VERTEX_POINT('',#618);
#618 = CARTESIAN_POINT('',(-0.900000076294,14.279999704361,0.3));
#619 = SURFACE_CURVE('',#620,(#624,#631),.PCURVE_S1.);
#620 = LINE('',#621,#622);
#621 = CARTESIAN_POINT('',(-1.700000076294,14.279999704361,0.3));
#622 = VECTOR('',#623,1.);
#623 = DIRECTION('',(-1.,-1.873501354055E-15,-1.387778780781E-17));
#624 = PCURVE('',#45,#625);
#625 = DEFINITIONAL_REPRESENTATION('',(#626),#630);
#626 = LINE('',#627,#628);
#627 = CARTESIAN_POINT('',(7.8,-8.659739592076E-16));
#628 = VECTOR('',#629,1.);
#629 = DIRECTION('',(-1.110223024625E-16,-1.));
#630 = ( GEOMETRIC_REPRESENTATION_CONTEXT(2) 
PARAMETRIC_REPRESENTATION_CONTEXT() REPRESENTATION_CONTEXT('2D SPACE',''
  ) );
#631 = PCURVE('',#268,#632);
#632 = DEFINITIONAL_REPRESENTATION('',(#633),#637);
#633 = LINE('',#634,#635);
#634 = CARTESIAN_POINT('',(7.068583470577,0.));
#635 = VECTOR('',#636,1.);
#636 = DIRECTION('',(0.,1.));
#637 = ( GEOMETRIC_REPRESENTATION_CONTEXT(2) 
PARAMETRIC_REPRESENTATION_CONTEXT() REPRESENTATION_CONTEXT('2D SPACE',''
  ) );
#638 = ORIENTED_EDGE('',*,*,#639,.F.);
#639 = EDGE_CURVE('',#640,#617,#642,.T.);
#640 = VERTEX_POINT('',#641);
#641 = CARTESIAN_POINT('',(-0.900000076294,5.279999704361,0.3));
#642 = SURFACE_CURVE('',#643,(#647,#654),.PCURVE_S1.);
#643 = LINE('',#644,#645);
#644 = CARTESIAN_POINT('',(-0.900000076294,13.079999704361,0.3));
#645 = VECTOR('',#646,1.);
#646 = DIRECTION('',(-1.762479051592E-15,1.,7.285838599103E-17));
#647 = PCURVE('',#45,#648);
#648 = DEFINITIONAL_REPRESENTATION('',(#649),#653);
#649 = LINE('',#650,#651);
#650 = CARTESIAN_POINT('',(6.6,0.8));
#651 = VECTOR('',#652,1.);
#652 = DIRECTION('',(1.,-5.345529420184E-49));
#653 = ( GEOMETRIC_REPRESENTATION_CONTEXT(2) 
PARAMETRIC_REPRESENTATION_CONTEXT() REPRESENTATION_CONTEXT('2D SPACE',''
  ) );
#654 = PCURVE('',#406,#655);
#655 = DEFINITIONAL_REPRESENTATION('',(#656),#660);
#656 = LINE('',#657,#658);
#657 = CARTESIAN_POINT('',(1.55,-1.398864222723));
#658 = VECTOR('',#659,1.);
#659 = DIRECTION('',(-6.938893903907E-17,-1.));
#660 = ( GEOMETRIC_REPRESENTATION_CONTEXT(2) 
PARAMETRIC_REPRESENTATION_CONTEXT() REPRESENTATION_CONTEXT('2D SPACE',''
  ) );
#661 = ORIENTED_EDGE('',*,*,#662,.F.);
#662 = EDGE_CURVE('',#663,#640,#665,.T.);
#663 = VERTEX_POINT('',#664);
#664 = CARTESIAN_POINT('',(-1.599998645782,5.279999704361,0.3));
#665 = SURFACE_CURVE('',#666,(#670,#677),.PCURVE_S1.);
#666 = LINE('',#667,#668);
#667 = CARTESIAN_POINT('',(-1.700000076294,5.279999704361,0.3));
#668 = VECTOR('',#669,1.);
#669 = DIRECTION('',(1.,1.873501354055E-15,1.387778780781E-17));
#670 = PCURVE('',#45,#671);
#671 = DEFINITIONAL_REPRESENTATION('',(#672),#676);
#672 = LINE('',#673,#674);
#673 = CARTESIAN_POINT('',(-1.2,1.33226762955E-16));
#674 = VECTOR('',#675,1.);
#675 = DIRECTION('',(1.110223024625E-16,1.));
#676 = ( GEOMETRIC_REPRESENTATION_CONTEXT(2) 
PARAMETRIC_REPRESENTATION_CONTEXT() REPRESENTATION_CONTEXT('2D SPACE',''
  ) );
#677 = PCURVE('',#678,#683);
#678 = CYLINDRICAL_SURFACE('',#679,0.2);
#679 = AXIS2_PLACEMENT_3D('',#680,#681,#682);
#680 = CARTESIAN_POINT('',(-1.700000076294,5.279999704361,0.5));
#681 = DIRECTION('',(1.,1.873501354055E-15,1.387778780781E-17));
#682 = DIRECTION('',(1.334578589881E-15,-0.707106781187,-0.707106781187)
  );
#683 = DEFINITIONAL_REPRESENTATION('',(#684),#688);
#684 = LINE('',#685,#686);
#685 = CARTESIAN_POINT('',(7.068583470577,0.));
#686 = VECTOR('',#687,1.);
#687 = DIRECTION('',(0.,1.));
#688 = ( GEOMETRIC_REPRESENTATION_CONTEXT(2) 
PARAMETRIC_REPRESENTATION_CONTEXT() REPRESENTATION_CONTEXT('2D SPACE',''
  ) );
#689 = ORIENTED_EDGE('',*,*,#690,.F.);
#690 = EDGE_CURVE('',#444,#663,#691,.T.);
#691 = SURFACE_CURVE('',#692,(#697,#708),.PCURVE_S1.);
#692 = CIRCLE('',#693,0.5);
#693 = AXIS2_PLACEMENT_3D('',#694,#695,#696);
#694 = CARTESIAN_POINT('',(-1.199998645782,5.579999704361,0.3));
#695 = DIRECTION('',(-1.387778780781E-17,-7.285838599103E-17,1.));
#696 = DIRECTION('',(-0.707106781187,-0.707106781187,-6.133173666733E-17
    ));
#697 = PCURVE('',#45,#698);
#698 = DEFINITIONAL_REPRESENTATION('',(#699),#707);
#699 = ( BOUNDED_CURVE() B_SPLINE_CURVE(2,(#700,#701,#702,#703,#704,#705
,#706),.UNSPECIFIED.,.T.,.F.) B_SPLINE_CURVE_WITH_KNOTS((1,2,2,2,2,1),(
    -2.094395102393,0.,2.094395102393,4.188790204786,6.28318530718,
8.377580409573),.UNSPECIFIED.) CURVE() GEOMETRIC_REPRESENTATION_ITEM() 
RATIONAL_B_SPLINE_CURVE((1.,0.5,1.,0.5,1.,0.5,1.)) REPRESENTATION_ITEM(
  '') );
#700 = CARTESIAN_POINT('',(-1.253553390593,0.146448039918));
#701 = CARTESIAN_POINT('',(-1.865925826289,0.758820475614));
#702 = CARTESIAN_POINT('',(-1.029409522551,0.982964343656));
#703 = CARTESIAN_POINT('',(-0.192893218813,1.207108211698));
#704 = CARTESIAN_POINT('',(-0.417037086855,0.37059190796));
#705 = CARTESIAN_POINT('',(-0.641180954897,-0.465924395778));
#706 = CARTESIAN_POINT('',(-1.253553390593,0.146448039918));
#707 = ( GEOMETRIC_REPRESENTATION_CONTEXT(2) 
PARAMETRIC_REPRESENTATION_CONTEXT() REPRESENTATION_CONTEXT('2D SPACE',''
  ) );
#708 = PCURVE('',#350,#709);
#709 = DEFINITIONAL_REPRESENTATION('',(#710),#714);
#710 = LINE('',#711,#712);
#711 = CARTESIAN_POINT('',(12.566370614359,2.925));
#712 = VECTOR('',#713,1.);
#713 = DIRECTION('',(-1.,0.));
#714 = ( GEOMETRIC_REPRESENTATION_CONTEXT(2) 
PARAMETRIC_REPRESENTATION_CONTEXT() REPRESENTATION_CONTEXT('2D SPACE',''
  ) );
#715 = ORIENTED_EDGE('',*,*,#443,.F.);
#716 = ADVANCED_FACE('',(#717),#350,.T.);
#717 = FACE_BOUND('',#718,.T.);
#718 = EDGE_LOOP('',(#719,#791,#819,#889,#890,#891));
#719 = ORIENTED_EDGE('',*,*,#720,.T.);
#720 = EDGE_CURVE('',#663,#721,#723,.T.);
#721 = VERTEX_POINT('',#722);
#722 = CARTESIAN_POINT('',(-1.199998645782,5.079999704361,0.5));
#723 = SURFACE_CURVE('',#724,(#733,#762),.PCURVE_S1.);
#724 = B_SPLINE_CURVE_WITH_KNOTS('',3,(#725,#726,#727,#728,#729,#730,
    #731,#732),.UNSPECIFIED.,.F.,.F.,(4,2,2,4),(0.114585885131,
    0.127219571983,0.139853258835,0.165120632539),.UNSPECIFIED.);
#725 = CARTESIAN_POINT('',(-1.599998645782,5.279999704361,0.3));
#726 = CARTESIAN_POINT('',(-1.574731272078,5.246309872756,0.3));
#727 = CARTESIAN_POINT('',(-1.546381893111,5.217220776289,0.308079918842
    ));
#728 = CARTESIAN_POINT('',(-1.484743737334,5.167100147596,0.332563594363
    ));
#729 = CARTESIAN_POINT('',(-1.451507836015,5.146137593089,0.349240829922
    ));
#730 = CARTESIAN_POINT('',(-1.347043494231,5.095903747096,0.406729123919
    ));
#731 = CARTESIAN_POINT('',(-1.271181407088,5.079999704361,0.454980068827
    ));
#732 = CARTESIAN_POINT('',(-1.199998645782,5.079999704361,0.5));
#733 = PCURVE('',#350,#734);
#734 = DEFINITIONAL_REPRESENTATION('',(#735),#761);
#735 = B_SPLINE_CURVE_WITH_KNOTS('',3,(#736,#737,#738,#739,#740,#741,
    #742,#743,#744,#745,#746,#747,#748,#749,#750,#751,#752,#753,#754,
    #755,#756,#757,#758,#759,#760),.UNSPECIFIED.,.F.,.F.,(4,1,1,1,1,1,1,
    1,1,1,1,1,1,1,1,1,1,1,1,1,1,1,4),(0.114585885131,0.116882919104,
    0.119179953078,0.121476987051,0.123774021024,0.126071054997,
    0.12836808897,0.130665122943,0.132962156916,0.135259190889,
    0.137556224862,0.139853258835,0.142150292808,0.144447326782,
    0.146744360755,0.149041394728,0.151338428701,0.153635462674,
    0.155932496647,0.15822953062,0.160526564593,0.162823598566,
    0.165120632539),.QUASI_UNIFORM_KNOTS.);
#736 = CARTESIAN_POINT('',(6.425082361784,2.925));
#737 = CARTESIAN_POINT('',(6.409769087883,2.925));
#738 = CARTESIAN_POINT('',(6.379383664644,2.92446578074));
#739 = CARTESIAN_POINT('',(6.334435326039,2.922203177083));
#740 = CARTESIAN_POINT('',(6.290021778666,2.918620330673));
#741 = CARTESIAN_POINT('',(6.246053014055,2.913859502025));
#742 = CARTESIAN_POINT('',(6.20244693736,2.908058388648));
#743 = CARTESIAN_POINT('',(6.159117663424,2.901371711578));
#744 = CARTESIAN_POINT('',(6.116055278664,2.893841105821));
#745 = CARTESIAN_POINT('',(6.073234705713,2.885536054243));
#746 = CARTESIAN_POINT('',(6.030631705947,2.876527089662));
#747 = CARTESIAN_POINT('',(5.988226520283,2.866884507924));
#748 = CARTESIAN_POINT('',(5.945992263352,2.856678502805));
#749 = CARTESIAN_POINT('',(5.903936740656,2.845979913334));
#750 = CARTESIAN_POINT('',(5.862088907382,2.834848573411));
#751 = CARTESIAN_POINT('',(5.820451370871,2.823343649767));
#752 = CARTESIAN_POINT('',(5.779041566879,2.8115244879));
#753 = CARTESIAN_POINT('',(5.737879716294,2.799450385409));
#754 = CARTESIAN_POINT('',(5.69699098692,2.787180652725));
#755 = CARTESIAN_POINT('',(5.656403804613,2.774774596842));
#756 = CARTESIAN_POINT('',(5.616149178483,2.762291525676));
#757 = CARTESIAN_POINT('',(5.576259719213,2.749790746895));
#758 = CARTESIAN_POINT('',(5.536768863048,2.737331568233));
#759 = CARTESIAN_POINT('',(5.510729402059,2.729092721016));
#760 = CARTESIAN_POINT('',(5.497787143782,2.725));
#761 = ( GEOMETRIC_REPRESENTATION_CONTEXT(2) 
PARAMETRIC_REPRESENTATION_CONTEXT() REPRESENTATION_CONTEXT('2D SPACE',''
  ) );
#762 = PCURVE('',#678,#763);
#763 = DEFINITIONAL_REPRESENTATION('',(#764),#790);
#764 = B_SPLINE_CURVE_WITH_KNOTS('',3,(#765,#766,#767,#768,#769,#770,
    #771,#772,#773,#774,#775,#776,#777,#778,#779,#780,#781,#782,#783,
    #784,#785,#786,#787,#788,#789),.UNSPECIFIED.,.F.,.F.,(4,1,1,1,1,1,1,
    1,1,1,1,1,1,1,1,1,1,1,1,1,1,1,4),(0.114585885131,0.116882919104,
    0.119179953078,0.121476987051,0.123774021024,0.126071054997,
    0.12836808897,0.130665122943,0.132962156916,0.135259190889,
    0.137556224862,0.139853258835,0.142150292808,0.144447326782,
    0.146744360755,0.149041394728,0.151338428701,0.153635462674,
    0.155932496647,0.15822953062,0.160526564593,0.162823598566,
    0.165120632539),.QUASI_UNIFORM_KNOTS.);
#765 = CARTESIAN_POINT('',(7.068583470577,0.100001430511));
#766 = CARTESIAN_POINT('',(7.037963118562,0.104595498458));
#767 = CARTESIAN_POINT('',(6.978218903665,0.113987401834));
#768 = CARTESIAN_POINT('',(6.89243700512,0.12866449081));
#769 = CARTESIAN_POINT('',(6.809793726181,0.143908692636));
#770 = CARTESIAN_POINT('',(6.729735924711,0.159698070071));
#771 = CARTESIAN_POINT('',(6.651825683213,0.176010003112));
#772 = CARTESIAN_POINT('',(6.57579087742,0.192824418985));
#773 = CARTESIAN_POINT('',(6.501354371022,0.210102885884));
#774 = CARTESIAN_POINT('',(6.428294373016,0.227815828791));
#775 = CARTESIAN_POINT('',(6.356429996804,0.245933230195));
#776 = CARTESIAN_POINT('',(6.285626722897,0.264424864444));
#777 = CARTESIAN_POINT('',(6.21576408441,0.283261780949));
#778 = CARTESIAN_POINT('',(6.146854730852,0.302410137));
#779 = CARTESIAN_POINT('',(6.078837380212,0.321816936259));
#780 = CARTESIAN_POINT('',(6.011587360333,0.341434085584));
#781 = CARTESIAN_POINT('',(5.945036931886,0.361212178026));
#782 = CARTESIAN_POINT('',(5.879140102833,0.381102158668));
#783 = CARTESIAN_POINT('',(5.813878080573,0.401054878267));
#784 = CARTESIAN_POINT('',(5.749252958851,0.421021212856));
#785 = CARTESIAN_POINT('',(5.685283874766,0.440952031694));
#786 = CARTESIAN_POINT('',(5.622001899307,0.460798205854));
#787 = CARTESIAN_POINT('',(5.559445262025,0.480510605926));
#788 = CARTESIAN_POINT('',(5.518250565953,0.493530270393));
#789 = CARTESIAN_POINT('',(5.497787143782,0.500001430512));
#790 = ( GEOMETRIC_REPRESENTATION_CONTEXT(2) 
PARAMETRIC_REPRESENTATION_CONTEXT() REPRESENTATION_CONTEXT('2D SPACE',''
  ) );
#791 = ORIENTED_EDGE('',*,*,#792,.T.);
#792 = EDGE_CURVE('',#721,#793,#795,.T.);
#793 = VERTEX_POINT('',#794);
#794 = CARTESIAN_POINT('',(-1.199998645782,5.079999704361,4.4));
#795 = SURFACE_CURVE('',#796,(#800,#807),.PCURVE_S1.);
#796 = LINE('',#797,#798);
#797 = CARTESIAN_POINT('',(-1.199998645782,5.079999704361,3.225));
#798 = VECTOR('',#799,1.);
#799 = DIRECTION('',(-1.387778780781E-17,-3.469446951954E-18,1.));
#800 = PCURVE('',#350,#801);
#801 = DEFINITIONAL_REPRESENTATION('',(#802),#806);
#802 = LINE('',#803,#804);
#803 = CARTESIAN_POINT('',(5.497787143782,0.));
#804 = VECTOR('',#805,1.);
#805 = DIRECTION('',(0.,-1.));
#806 = ( GEOMETRIC_REPRESENTATION_CONTEXT(2) 
PARAMETRIC_REPRESENTATION_CONTEXT() REPRESENTATION_CONTEXT('2D SPACE',''
  ) );
#807 = PCURVE('',#808,#813);
#808 = PLANE('',#809);
#809 = AXIS2_PLACEMENT_3D('',#810,#811,#812);
#810 = CARTESIAN_POINT('',(-1.700000076294,5.079999704361,4.6));
#811 = DIRECTION('',(1.873501354055E-15,-1.,-3.469446951953E-18));
#812 = DIRECTION('',(1.387778780781E-17,3.469446951954E-18,-1.));
#813 = DEFINITIONAL_REPRESENTATION('',(#814),#818);
#814 = LINE('',#815,#816);
#815 = CARTESIAN_POINT('',(1.375,0.500001430512));
#816 = VECTOR('',#817,1.);
#817 = DIRECTION('',(-1.,-4.276423536147E-50));
#818 = ( GEOMETRIC_REPRESENTATION_CONTEXT(2) 
PARAMETRIC_REPRESENTATION_CONTEXT() REPRESENTATION_CONTEXT('2D SPACE',''
  ) );
#819 = ORIENTED_EDGE('',*,*,#820,.T.);
#820 = EDGE_CURVE('',#793,#330,#821,.T.);
#821 = SURFACE_CURVE('',#822,(#831,#860),.PCURVE_S1.);
#822 = B_SPLINE_CURVE_WITH_KNOTS('',3,(#823,#824,#825,#826,#827,#828,
    #829,#830),.UNSPECIFIED.,.F.,.F.,(4,2,2,4),(0.,2.526737370402E-02,
    3.790106055603E-02,5.053474740805E-02),.UNSPECIFIED.);
#823 = CARTESIAN_POINT('',(-1.199998645782,5.079999704361,4.4));
#824 = CARTESIAN_POINT('',(-1.271181407088,5.079999704361,4.445019931173
    ));
#825 = CARTESIAN_POINT('',(-1.347043494231,5.095903747096,4.493270876081
    ));
#826 = CARTESIAN_POINT('',(-1.451507836015,5.146137593089,4.550759170078
    ));
#827 = CARTESIAN_POINT('',(-1.484743737334,5.167100147596,4.567436405637
    ));
#828 = CARTESIAN_POINT('',(-1.546381893111,5.217220776289,4.591920081158
    ));
#829 = CARTESIAN_POINT('',(-1.574731272078,5.246309872756,4.6));
#830 = CARTESIAN_POINT('',(-1.599998645782,5.279999704361,4.6));
#831 = PCURVE('',#350,#832);
#832 = DEFINITIONAL_REPRESENTATION('',(#833),#859);
#833 = B_SPLINE_CURVE_WITH_KNOTS('',3,(#834,#835,#836,#837,#838,#839,
    #840,#841,#842,#843,#844,#845,#846,#847,#848,#849,#850,#851,#852,
    #853,#854,#855,#856,#857,#858),.UNSPECIFIED.,.F.,.F.,(4,1,1,1,1,1,1,
    1,1,1,1,1,1,1,1,1,1,1,1,1,1,1,4),(0.,2.297033973093E-03,
    4.594067946186E-03,6.891101919279E-03,9.188135892372E-03,
    1.148516986546E-02,1.378220383856E-02,1.607923781165E-02,
    1.837627178474E-02,2.067330575784E-02,2.297033973093E-02,
    2.526737370402E-02,2.756440767712E-02,2.986144165021E-02,
    3.21584756233E-02,3.445550959639E-02,3.675254356949E-02,
    3.904957754258E-02,4.134661151567E-02,4.364364548877E-02,
    4.594067946186E-02,4.823771343495E-02,5.053474740805E-02),
  .QUASI_UNIFORM_KNOTS.);
#834 = CARTESIAN_POINT('',(5.497787143782,-1.175));
#835 = CARTESIAN_POINT('',(5.510729402059,-1.179092721016));
#836 = CARTESIAN_POINT('',(5.536768863048,-1.187331568233));
#837 = CARTESIAN_POINT('',(5.576259719213,-1.199790746895));
#838 = CARTESIAN_POINT('',(5.616149178483,-1.212291525676));
#839 = CARTESIAN_POINT('',(5.656403804613,-1.224774596842));
#840 = CARTESIAN_POINT('',(5.69699098692,-1.237180652725));
#841 = CARTESIAN_POINT('',(5.737879716294,-1.249450385409));
#842 = CARTESIAN_POINT('',(5.779041566879,-1.2615244879));
#843 = CARTESIAN_POINT('',(5.820451370871,-1.273343649767));
#844 = CARTESIAN_POINT('',(5.862088907382,-1.284848573411));
#845 = CARTESIAN_POINT('',(5.903936740656,-1.295979913334));
#846 = CARTESIAN_POINT('',(5.945992263352,-1.306678502805));
#847 = CARTESIAN_POINT('',(5.988226520283,-1.316884507924));
#848 = CARTESIAN_POINT('',(6.030631705947,-1.326527089662));
#849 = CARTESIAN_POINT('',(6.073234705713,-1.335536054243));
#850 = CARTESIAN_POINT('',(6.116055278664,-1.343841105821));
#851 = CARTESIAN_POINT('',(6.159117663424,-1.351371711578));
#852 = CARTESIAN_POINT('',(6.20244693736,-1.358058388648));
#853 = CARTESIAN_POINT('',(6.246053014055,-1.363859502025));
#854 = CARTESIAN_POINT('',(6.290021778666,-1.368620330673));
#855 = CARTESIAN_POINT('',(6.334435326039,-1.372203177083));
#856 = CARTESIAN_POINT('',(6.379383664644,-1.37446578074));
#857 = CARTESIAN_POINT('',(6.409769087883,-1.375));
#858 = CARTESIAN_POINT('',(6.425082361784,-1.375));
#859 = ( GEOMETRIC_REPRESENTATION_CONTEXT(2) 
PARAMETRIC_REPRESENTATION_CONTEXT() REPRESENTATION_CONTEXT('2D SPACE',''
  ) );
#860 = PCURVE('',#378,#861);
#861 = DEFINITIONAL_REPRESENTATION('',(#862),#888);
#862 = B_SPLINE_CURVE_WITH_KNOTS('',3,(#863,#864,#865,#866,#867,#868,
    #869,#870,#871,#872,#873,#874,#875,#876,#877,#878,#879,#880,#881,
    #882,#883,#884,#885,#886,#887),.UNSPECIFIED.,.F.,.F.,(4,1,1,1,1,1,1,
    1,1,1,1,1,1,1,1,1,1,1,1,1,1,1,4),(0.,2.297033973093E-03,
    4.594067946186E-03,6.891101919279E-03,9.188135892372E-03,
    1.148516986546E-02,1.378220383856E-02,1.607923781165E-02,
    1.837627178474E-02,2.067330575784E-02,2.297033973093E-02,
    2.526737370402E-02,2.756440767712E-02,2.986144165021E-02,
    3.21584756233E-02,3.445550959639E-02,3.675254356949E-02,
    3.904957754258E-02,4.134661151567E-02,4.364364548877E-02,
    4.594067946186E-02,4.823771343495E-02,5.053474740805E-02),
  .QUASI_UNIFORM_KNOTS.);
#863 = CARTESIAN_POINT('',(0.785398163397,0.500001430512));
#864 = CARTESIAN_POINT('',(0.764934741226,0.493530270393));
#865 = CARTESIAN_POINT('',(0.723740045155,0.480510605926));
#866 = CARTESIAN_POINT('',(0.661183407872,0.460798205854));
#867 = CARTESIAN_POINT('',(0.597901432414,0.440952031694));
#868 = CARTESIAN_POINT('',(0.533932348328,0.421021212856));
#869 = CARTESIAN_POINT('',(0.469307226607,0.401054878267));
#870 = CARTESIAN_POINT('',(0.404045204347,0.381102158668));
#871 = CARTESIAN_POINT('',(0.338148375293,0.361212178026));
#872 = CARTESIAN_POINT('',(0.271597946846,0.341434085584));
#873 = CARTESIAN_POINT('',(0.204347926968,0.321816936259));
#874 = CARTESIAN_POINT('',(0.136330576328,0.302410137));
#875 = CARTESIAN_POINT('',(6.742122276976E-02,0.283261780949));
#876 = CARTESIAN_POINT('',(-2.441415717475E-03,0.264424864444));
#877 = CARTESIAN_POINT('',(-7.324468962468E-02,0.245933230195));
#878 = CARTESIAN_POINT('',(-0.145109065837,0.227815828791));
#879 = CARTESIAN_POINT('',(-0.218169063843,0.210102885884));
#880 = CARTESIAN_POINT('',(-0.29260557024,0.192824418985));
#881 = CARTESIAN_POINT('',(-0.368640376034,0.176010003111));
#882 = CARTESIAN_POINT('',(-0.446550617532,0.159698070071));
#883 = CARTESIAN_POINT('',(-0.526608419001,0.143908692636));
#884 = CARTESIAN_POINT('',(-0.60925169794,0.12866449081));
#885 = CARTESIAN_POINT('',(-0.695033596486,0.113987401834));
#886 = CARTESIAN_POINT('',(-0.754777811382,0.104595498458));
#887 = CARTESIAN_POINT('',(-0.785398163397,0.100001430511));
#888 = ( GEOMETRIC_REPRESENTATION_CONTEXT(2) 
PARAMETRIC_REPRESENTATION_CONTEXT() REPRESENTATION_CONTEXT('2D SPACE',''
  ) );
#889 = ORIENTED_EDGE('',*,*,#329,.T.);
#890 = ORIENTED_EDGE('',*,*,#466,.T.);
#891 = ORIENTED_EDGE('',*,*,#690,.T.);
#892 = ADVANCED_FACE('',(#893),#808,.T.);
#893 = FACE_BOUND('',#894,.T.);
#894 = EDGE_LOOP('',(#895,#896,#919,#942));
#895 = ORIENTED_EDGE('',*,*,#792,.F.);
#896 = ORIENTED_EDGE('',*,*,#897,.F.);
#897 = EDGE_CURVE('',#898,#721,#900,.T.);
#898 = VERTEX_POINT('',#899);
#899 = CARTESIAN_POINT('',(-0.900000076294,5.079999704361,0.5));
#900 = SURFACE_CURVE('',#901,(#905,#912),.PCURVE_S1.);
#901 = LINE('',#902,#903);
#902 = CARTESIAN_POINT('',(-1.700000076294,5.079999704361,0.5));
#903 = VECTOR('',#904,1.);
#904 = DIRECTION('',(-1.,-1.873501354055E-15,-1.387778780781E-17));
#905 = PCURVE('',#808,#906);
#906 = DEFINITIONAL_REPRESENTATION('',(#907),#911);
#907 = LINE('',#908,#909);
#908 = CARTESIAN_POINT('',(4.1,-7.603872608729E-68));
#909 = VECTOR('',#910,1.);
#910 = DIRECTION('',(-2.736576967546E-47,-1.));
#911 = ( GEOMETRIC_REPRESENTATION_CONTEXT(2) 
PARAMETRIC_REPRESENTATION_CONTEXT() REPRESENTATION_CONTEXT('2D SPACE',''
  ) );
#912 = PCURVE('',#678,#913);
#913 = DEFINITIONAL_REPRESENTATION('',(#914),#918);
#914 = LINE('',#915,#916);
#915 = CARTESIAN_POINT('',(5.497787143782,0.));
#916 = VECTOR('',#917,1.);
#917 = DIRECTION('',(0.,-1.));
#918 = ( GEOMETRIC_REPRESENTATION_CONTEXT(2) 
PARAMETRIC_REPRESENTATION_CONTEXT() REPRESENTATION_CONTEXT('2D SPACE',''
  ) );
#919 = ORIENTED_EDGE('',*,*,#920,.F.);
#920 = EDGE_CURVE('',#921,#898,#923,.T.);
#921 = VERTEX_POINT('',#922);
#922 = CARTESIAN_POINT('',(-0.900000076294,5.079999704361,4.4));
#923 = SURFACE_CURVE('',#924,(#928,#935),.PCURVE_S1.);
#924 = LINE('',#925,#926);
#925 = CARTESIAN_POINT('',(-0.900000076294,5.079999704361,4.6));
#926 = VECTOR('',#927,1.);
#927 = DIRECTION('',(1.387778780781E-17,3.469446951954E-18,-1.));
#928 = PCURVE('',#808,#929);
#929 = DEFINITIONAL_REPRESENTATION('',(#930),#934);
#930 = LINE('',#931,#932);
#931 = CARTESIAN_POINT('',(1.215284303211E-64,0.8));
#932 = VECTOR('',#933,1.);
#933 = DIRECTION('',(1.,0.));
#934 = ( GEOMETRIC_REPRESENTATION_CONTEXT(2) 
PARAMETRIC_REPRESENTATION_CONTEXT() REPRESENTATION_CONTEXT('2D SPACE',''
  ) );
#935 = PCURVE('',#406,#936);
#936 = DEFINITIONAL_REPRESENTATION('',(#937),#941);
#937 = LINE('',#938,#939);
#938 = CARTESIAN_POINT('',(-2.75,6.601135777277));
#939 = VECTOR('',#940,1.);
#940 = DIRECTION('',(1.,-3.851859888774E-34));
#941 = ( GEOMETRIC_REPRESENTATION_CONTEXT(2) 
PARAMETRIC_REPRESENTATION_CONTEXT() REPRESENTATION_CONTEXT('2D SPACE',''
  ) );
#942 = ORIENTED_EDGE('',*,*,#943,.F.);
#943 = EDGE_CURVE('',#793,#921,#944,.T.);
#944 = SURFACE_CURVE('',#945,(#949,#956),.PCURVE_S1.);
#945 = LINE('',#946,#947);
#946 = CARTESIAN_POINT('',(-1.700000076294,5.079999704361,4.4));
#947 = VECTOR('',#948,1.);
#948 = DIRECTION('',(1.,1.873501354055E-15,1.387778780781E-17));
#949 = PCURVE('',#808,#950);
#950 = DEFINITIONAL_REPRESENTATION('',(#951),#955);
#951 = LINE('',#952,#953);
#952 = CARTESIAN_POINT('',(0.2,-3.7092061506E-69));
#953 = VECTOR('',#954,1.);
#954 = DIRECTION('',(3.909395667922E-47,1.));
#955 = ( GEOMETRIC_REPRESENTATION_CONTEXT(2) 
PARAMETRIC_REPRESENTATION_CONTEXT() REPRESENTATION_CONTEXT('2D SPACE',''
  ) );
#956 = PCURVE('',#378,#957);
#957 = DEFINITIONAL_REPRESENTATION('',(#958),#962);
#958 = LINE('',#959,#960);
#959 = CARTESIAN_POINT('',(0.785398163397,0.));
#960 = VECTOR('',#961,1.);
#961 = DIRECTION('',(0.,1.));
#962 = ( GEOMETRIC_REPRESENTATION_CONTEXT(2) 
PARAMETRIC_REPRESENTATION_CONTEXT() REPRESENTATION_CONTEXT('2D SPACE',''
  ) );
#963 = ADVANCED_FACE('',(#964),#678,.T.);
#964 = FACE_BOUND('',#965,.T.);
#965 = EDGE_LOOP('',(#966,#967,#968,#990));
#966 = ORIENTED_EDGE('',*,*,#720,.F.);
#967 = ORIENTED_EDGE('',*,*,#662,.T.);
#968 = ORIENTED_EDGE('',*,*,#969,.T.);
#969 = EDGE_CURVE('',#640,#898,#970,.T.);
#970 = SURFACE_CURVE('',#971,(#976,#983),.PCURVE_S1.);
#971 = CIRCLE('',#972,0.2);
#972 = AXIS2_PLACEMENT_3D('',#973,#974,#975);
#973 = CARTESIAN_POINT('',(-0.900000076294,5.279999704361,0.5));
#974 = DIRECTION('',(-1.,-1.773917384512E-15,-1.387778780781E-17));
#975 = DIRECTION('',(1.26416208972E-15,-0.707106781187,-0.707106781187)
  );
#976 = PCURVE('',#678,#977);
#977 = DEFINITIONAL_REPRESENTATION('',(#978),#982);
#978 = LINE('',#979,#980);
#979 = CARTESIAN_POINT('',(12.566370614359,0.8));
#980 = VECTOR('',#981,1.);
#981 = DIRECTION('',(-1.,0.));
#982 = ( GEOMETRIC_REPRESENTATION_CONTEXT(2) 
PARAMETRIC_REPRESENTATION_CONTEXT() REPRESENTATION_CONTEXT('2D SPACE',''
  ) );
#983 = PCURVE('',#406,#984);
#984 = DEFINITIONAL_REPRESENTATION('',(#985),#989);
#985 = CIRCLE('',#986,0.2);
#986 = AXIS2_PLACEMENT_2D('',#987,#988);
#987 = CARTESIAN_POINT('',(1.35,6.401135777277));
#988 = DIRECTION('',(0.707106781187,0.707106781187));
#989 = ( GEOMETRIC_REPRESENTATION_CONTEXT(2) 
PARAMETRIC_REPRESENTATION_CONTEXT() REPRESENTATION_CONTEXT('2D SPACE',''
  ) );
#990 = ORIENTED_EDGE('',*,*,#897,.T.);
#991 = ADVANCED_FACE('',(#992),#378,.T.);
#992 = FACE_BOUND('',#993,.T.);
#993 = EDGE_LOOP('',(#994,#995,#996,#1018));
#994 = ORIENTED_EDGE('',*,*,#820,.F.);
#995 = ORIENTED_EDGE('',*,*,#943,.T.);
#996 = ORIENTED_EDGE('',*,*,#997,.T.);
#997 = EDGE_CURVE('',#921,#363,#998,.T.);
#998 = SURFACE_CURVE('',#999,(#1004,#1011),.PCURVE_S1.);
#999 = CIRCLE('',#1000,0.2);
#1000 = AXIS2_PLACEMENT_3D('',#1001,#1002,#1003);
#1001 = CARTESIAN_POINT('',(-0.900000076294,5.279999704361,4.4));
#1002 = DIRECTION('',(-1.,-1.773917384512E-15,-1.387778780781E-17));
#1003 = DIRECTION('',(1.244535933986E-15,-0.707106781187,0.707106781187)
  );
#1004 = PCURVE('',#378,#1005);
#1005 = DEFINITIONAL_REPRESENTATION('',(#1006),#1010);
#1006 = LINE('',#1007,#1008);
#1007 = CARTESIAN_POINT('',(6.28318530718,0.8));
#1008 = VECTOR('',#1009,1.);
#1009 = DIRECTION('',(-1.,0.));
#1010 = ( GEOMETRIC_REPRESENTATION_CONTEXT(2) 
PARAMETRIC_REPRESENTATION_CONTEXT() REPRESENTATION_CONTEXT('2D SPACE',''
  ) );
#1011 = PCURVE('',#406,#1012);
#1012 = DEFINITIONAL_REPRESENTATION('',(#1013),#1017);
#1013 = CIRCLE('',#1014,0.2);
#1014 = AXIS2_PLACEMENT_2D('',#1015,#1016);
#1015 = CARTESIAN_POINT('',(-2.55,6.401135777277));
#1016 = DIRECTION('',(-0.707106781187,0.707106781187));
#1017 = ( GEOMETRIC_REPRESENTATION_CONTEXT(2) 
PARAMETRIC_REPRESENTATION_CONTEXT() REPRESENTATION_CONTEXT('2D SPACE',''
  ) );
#1018 = ORIENTED_EDGE('',*,*,#362,.T.);
#1019 = ADVANCED_FACE('',(#1020),#508,.T.);
#1020 = FACE_BOUND('',#1021,.T.);
#1021 = EDGE_LOOP('',(#1022,#1045,#1046,#1069));
#1022 = ORIENTED_EDGE('',*,*,#1023,.F.);
#1023 = EDGE_CURVE('',#493,#1024,#1026,.T.);
#1024 = VERTEX_POINT('',#1025);
#1025 = CARTESIAN_POINT('',(-4.899998645782,7.229999704361,3.6));
#1026 = SURFACE_CURVE('',#1027,(#1031,#1038),.PCURVE_S1.);
#1027 = LINE('',#1028,#1029);
#1028 = CARTESIAN_POINT('',(-1.699998645782,7.229999704361,3.6));
#1029 = VECTOR('',#1030,1.);
#1030 = DIRECTION('',(-1.,-1.873501354055E-15,-1.387778780781E-17));
#1031 = PCURVE('',#508,#1032);
#1032 = DEFINITIONAL_REPRESENTATION('',(#1033),#1037);
#1033 = LINE('',#1034,#1035);
#1034 = CARTESIAN_POINT('',(-1.25,-1.387778780781E-16));
#1035 = VECTOR('',#1036,1.);
#1036 = DIRECTION('',(-1.110223024625E-16,1.));
#1037 = ( GEOMETRIC_REPRESENTATION_CONTEXT(2) 
PARAMETRIC_REPRESENTATION_CONTEXT() REPRESENTATION_CONTEXT('2D SPACE',''
  ) );
#1038 = PCURVE('',#541,#1039);
#1039 = DEFINITIONAL_REPRESENTATION('',(#1040),#1044);
#1040 = LINE('',#1041,#1042);
#1041 = CARTESIAN_POINT('',(2.356194490192,0.));
#1042 = VECTOR('',#1043,1.);
#1043 = DIRECTION('',(0.,1.));
#1044 = ( GEOMETRIC_REPRESENTATION_CONTEXT(2) 
PARAMETRIC_REPRESENTATION_CONTEXT() REPRESENTATION_CONTEXT('2D SPACE',''
  ) );
#1045 = ORIENTED_EDGE('',*,*,#490,.F.);
#1046 = ORIENTED_EDGE('',*,*,#1047,.F.);
#1047 = EDGE_CURVE('',#1048,#491,#1050,.T.);
#1048 = VERTEX_POINT('',#1049);
#1049 = CARTESIAN_POINT('',(-4.899998645782,12.329999704361,3.6));
#1050 = SURFACE_CURVE('',#1051,(#1055,#1062),.PCURVE_S1.);
#1051 = LINE('',#1052,#1053);
#1052 = CARTESIAN_POINT('',(-1.699998645782,12.329999704361,3.6));
#1053 = VECTOR('',#1054,1.);
#1054 = DIRECTION('',(1.,1.873501354055E-15,1.387778780781E-17));
#1055 = PCURVE('',#508,#1056);
#1056 = DEFINITIONAL_REPRESENTATION('',(#1057),#1061);
#1057 = LINE('',#1058,#1059);
#1058 = CARTESIAN_POINT('',(3.85,4.274358644807E-16));
#1059 = VECTOR('',#1060,1.);
#1060 = DIRECTION('',(1.110223024625E-16,-1.));
#1061 = ( GEOMETRIC_REPRESENTATION_CONTEXT(2) 
PARAMETRIC_REPRESENTATION_CONTEXT() REPRESENTATION_CONTEXT('2D SPACE',''
  ) );
#1062 = PCURVE('',#600,#1063);
#1063 = DEFINITIONAL_REPRESENTATION('',(#1064),#1068);
#1064 = LINE('',#1065,#1066);
#1065 = CARTESIAN_POINT('',(3.926990816987,0.));
#1066 = VECTOR('',#1067,1.);
#1067 = DIRECTION('',(0.,-1.));
#1068 = ( GEOMETRIC_REPRESENTATION_CONTEXT(2) 
PARAMETRIC_REPRESENTATION_CONTEXT() REPRESENTATION_CONTEXT('2D SPACE',''
  ) );
#1069 = ORIENTED_EDGE('',*,*,#1070,.F.);
#1070 = EDGE_CURVE('',#1024,#1048,#1071,.T.);
#1071 = SURFACE_CURVE('',#1072,(#1076,#1083),.PCURVE_S1.);
#1072 = LINE('',#1073,#1074);
#1073 = CARTESIAN_POINT('',(-4.899998645782,9.129999704361,3.6));
#1074 = VECTOR('',#1075,1.);
#1075 = DIRECTION('',(-1.762479051592E-15,1.,2.169738747645E-16));
#1076 = PCURVE('',#508,#1077);
#1077 = DEFINITIONAL_REPRESENTATION('',(#1078),#1082);
#1078 = LINE('',#1079,#1080);
#1079 = CARTESIAN_POINT('',(0.65,3.2));
#1080 = VECTOR('',#1081,1.);
#1081 = DIRECTION('',(1.,5.060856255796E-48));
#1082 = ( GEOMETRIC_REPRESENTATION_CONTEXT(2) 
PARAMETRIC_REPRESENTATION_CONTEXT() REPRESENTATION_CONTEXT('2D SPACE',''
  ) );
#1083 = PCURVE('',#1084,#1089);
#1084 = PLANE('',#1085);
#1085 = AXIS2_PLACEMENT_3D('',#1086,#1087,#1088);
#1086 = CARTESIAN_POINT('',(-4.899998645782,9.779999704361,2.45));
#1087 = DIRECTION('',(-1.,-1.762479051592E-15,-1.387778780781E-17));
#1088 = DIRECTION('',(1.762479051592E-15,-1.,-3.469446951953E-18));
#1089 = DEFINITIONAL_REPRESENTATION('',(#1090),#1094);
#1090 = LINE('',#1091,#1092);
#1091 = CARTESIAN_POINT('',(0.65,1.15));
#1092 = VECTOR('',#1093,1.);
#1093 = DIRECTION('',(-1.,2.135044278125E-16));
#1094 = ( GEOMETRIC_REPRESENTATION_CONTEXT(2) 
PARAMETRIC_REPRESENTATION_CONTEXT() REPRESENTATION_CONTEXT('2D SPACE',''
  ) );
#1095 = ADVANCED_FACE('',(#1096),#541,.T.);
#1096 = FACE_BOUND('',#1097,.T.);
#1097 = EDGE_LOOP('',(#1098,#1126,#1147,#1148));
#1098 = ORIENTED_EDGE('',*,*,#1099,.T.);
#1099 = EDGE_CURVE('',#1024,#1100,#1102,.T.);
#1100 = VERTEX_POINT('',#1101);
#1101 = CARTESIAN_POINT('',(-4.899998645782,7.229999704361,1.3));
#1102 = SURFACE_CURVE('',#1103,(#1108,#1115),.PCURVE_S1.);
#1103 = CIRCLE('',#1104,1.15);
#1104 = AXIS2_PLACEMENT_3D('',#1105,#1106,#1107);
#1105 = CARTESIAN_POINT('',(-4.899998645782,7.229999704361,2.45));
#1106 = DIRECTION('',(1.,1.762479051592E-15,1.387778780781E-17));
#1107 = DIRECTION('',(1.236447811213E-15,-0.707106781187,0.707106781187)
  );
#1108 = PCURVE('',#541,#1109);
#1109 = DEFINITIONAL_REPRESENTATION('',(#1110),#1114);
#1110 = LINE('',#1111,#1112);
#1111 = CARTESIAN_POINT('',(7.853981633974,3.2));
#1112 = VECTOR('',#1113,1.);
#1113 = DIRECTION('',(-1.,0.));
#1114 = ( GEOMETRIC_REPRESENTATION_CONTEXT(2) 
PARAMETRIC_REPRESENTATION_CONTEXT() REPRESENTATION_CONTEXT('2D SPACE',''
  ) );
#1115 = PCURVE('',#1084,#1116);
#1116 = DEFINITIONAL_REPRESENTATION('',(#1117),#1125);
#1117 = ( BOUNDED_CURVE() B_SPLINE_CURVE(2,(#1118,#1119,#1120,#1121,
#1122,#1123,#1124),.UNSPECIFIED.,.T.,.F.) B_SPLINE_CURVE_WITH_KNOTS((1,2
    ,2,2,2,1),(-2.094395102393,0.,2.094395102393,4.188790204786,
6.28318530718,8.377580409573),.UNSPECIFIED.) CURVE() 
GEOMETRIC_REPRESENTATION_ITEM() RATIONAL_B_SPLINE_CURVE((1.,0.5,1.,0.5,
1.,0.5,1.)) REPRESENTATION_ITEM('') );
#1118 = CARTESIAN_POINT('',(3.363172798365,0.813172798365));
#1119 = CARTESIAN_POINT('',(4.771629400465,-0.595283803736));
#1120 = CARTESIAN_POINT('',(2.847641901868,-1.110814700232));
#1121 = CARTESIAN_POINT('',(0.923654403271,-1.626345596729));
#1122 = CARTESIAN_POINT('',(1.439185299768,0.297641901868));
#1123 = CARTESIAN_POINT('',(1.954716196264,2.221629400465));
#1124 = CARTESIAN_POINT('',(3.363172798365,0.813172798365));
#1125 = ( GEOMETRIC_REPRESENTATION_CONTEXT(2) 
PARAMETRIC_REPRESENTATION_CONTEXT() REPRESENTATION_CONTEXT('2D SPACE',''
  ) );
#1126 = ORIENTED_EDGE('',*,*,#1127,.T.);
#1127 = EDGE_CURVE('',#1100,#521,#1128,.T.);
#1128 = SURFACE_CURVE('',#1129,(#1133,#1140),.PCURVE_S1.);
#1129 = LINE('',#1130,#1131);
#1130 = CARTESIAN_POINT('',(-1.699998645782,7.229999704361,1.3));
#1131 = VECTOR('',#1132,1.);
#1132 = DIRECTION('',(1.,1.873501354055E-15,1.387778780781E-17));
#1133 = PCURVE('',#541,#1134);
#1134 = DEFINITIONAL_REPRESENTATION('',(#1135),#1139);
#1135 = LINE('',#1136,#1137);
#1136 = CARTESIAN_POINT('',(-0.785398163397,0.));
#1137 = VECTOR('',#1138,1.);
#1138 = DIRECTION('',(0.,-1.));
#1139 = ( GEOMETRIC_REPRESENTATION_CONTEXT(2) 
PARAMETRIC_REPRESENTATION_CONTEXT() REPRESENTATION_CONTEXT('2D SPACE',''
  ) );
#1140 = PCURVE('',#569,#1141);
#1141 = DEFINITIONAL_REPRESENTATION('',(#1142),#1146);
#1142 = LINE('',#1143,#1144);
#1143 = CARTESIAN_POINT('',(3.85,-4.274358644807E-16));
#1144 = VECTOR('',#1145,1.);
#1145 = DIRECTION('',(-1.110223024625E-16,-1.));
#1146 = ( GEOMETRIC_REPRESENTATION_CONTEXT(2) 
PARAMETRIC_REPRESENTATION_CONTEXT() REPRESENTATION_CONTEXT('2D SPACE',''
  ) );
#1147 = ORIENTED_EDGE('',*,*,#520,.F.);
#1148 = ORIENTED_EDGE('',*,*,#1023,.T.);
#1149 = ADVANCED_FACE('',(#1150),#569,.T.);
#1150 = FACE_BOUND('',#1151,.T.);
#1151 = EDGE_LOOP('',(#1152,#1153,#1176,#1197));
#1152 = ORIENTED_EDGE('',*,*,#1127,.F.);
#1153 = ORIENTED_EDGE('',*,*,#1154,.F.);
#1154 = EDGE_CURVE('',#1155,#1100,#1157,.T.);
#1155 = VERTEX_POINT('',#1156);
#1156 = CARTESIAN_POINT('',(-4.899998645782,12.329999704361,1.3));
#1157 = SURFACE_CURVE('',#1158,(#1162,#1169),.PCURVE_S1.);
#1158 = LINE('',#1159,#1160);
#1159 = CARTESIAN_POINT('',(-4.899998645782,10.429999704361,1.3));
#1160 = VECTOR('',#1161,1.);
#1161 = DIRECTION('',(1.762479051592E-15,-1.,-1.635977678114E-16));
#1162 = PCURVE('',#569,#1163);
#1163 = DEFINITIONAL_REPRESENTATION('',(#1164),#1168);
#1164 = LINE('',#1165,#1166);
#1165 = CARTESIAN_POINT('',(0.65,3.2));
#1166 = VECTOR('',#1167,1.);
#1167 = DIRECTION('',(1.,-2.846731643885E-48));
#1168 = ( GEOMETRIC_REPRESENTATION_CONTEXT(2) 
PARAMETRIC_REPRESENTATION_CONTEXT() REPRESENTATION_CONTEXT('2D SPACE',''
  ) );
#1169 = PCURVE('',#1084,#1170);
#1170 = DEFINITIONAL_REPRESENTATION('',(#1171),#1175);
#1171 = LINE('',#1172,#1173);
#1172 = CARTESIAN_POINT('',(-0.65,-1.15));
#1173 = VECTOR('',#1174,1.);
#1174 = DIRECTION('',(1.,-1.601283208594E-16));
#1175 = ( GEOMETRIC_REPRESENTATION_CONTEXT(2) 
PARAMETRIC_REPRESENTATION_CONTEXT() REPRESENTATION_CONTEXT('2D SPACE',''
  ) );
#1176 = ORIENTED_EDGE('',*,*,#1177,.F.);
#1177 = EDGE_CURVE('',#554,#1155,#1178,.T.);
#1178 = SURFACE_CURVE('',#1179,(#1183,#1190),.PCURVE_S1.);
#1179 = LINE('',#1180,#1181);
#1180 = CARTESIAN_POINT('',(-1.699998645782,12.329999704361,1.3));
#1181 = VECTOR('',#1182,1.);
#1182 = DIRECTION('',(-1.,-1.873501354055E-15,-1.387778780781E-17));
#1183 = PCURVE('',#569,#1184);
#1184 = DEFINITIONAL_REPRESENTATION('',(#1185),#1189);
#1185 = LINE('',#1186,#1187);
#1186 = CARTESIAN_POINT('',(-1.25,1.387778780781E-16));
#1187 = VECTOR('',#1188,1.);
#1188 = DIRECTION('',(1.110223024625E-16,1.));
#1189 = ( GEOMETRIC_REPRESENTATION_CONTEXT(2) 
PARAMETRIC_REPRESENTATION_CONTEXT() REPRESENTATION_CONTEXT('2D SPACE',''
  ) );
#1190 = PCURVE('',#600,#1191);
#1191 = DEFINITIONAL_REPRESENTATION('',(#1192),#1196);
#1192 = LINE('',#1193,#1194);
#1193 = CARTESIAN_POINT('',(7.068583470577,0.));
#1194 = VECTOR('',#1195,1.);
#1195 = DIRECTION('',(0.,1.));
#1196 = ( GEOMETRIC_REPRESENTATION_CONTEXT(2) 
PARAMETRIC_REPRESENTATION_CONTEXT() REPRESENTATION_CONTEXT('2D SPACE',''
  ) );
#1197 = ORIENTED_EDGE('',*,*,#553,.F.);
#1198 = ADVANCED_FACE('',(#1199),#1084,.T.);
#1199 = FACE_BOUND('',#1200,.T.);
#1200 = EDGE_LOOP('',(#1201,#1202,#1203,#1229));
#1201 = ORIENTED_EDGE('',*,*,#1099,.F.);
#1202 = ORIENTED_EDGE('',*,*,#1070,.T.);
#1203 = ORIENTED_EDGE('',*,*,#1204,.F.);
#1204 = EDGE_CURVE('',#1155,#1048,#1205,.T.);
#1205 = SURFACE_CURVE('',#1206,(#1211,#1222),.PCURVE_S1.);
#1206 = CIRCLE('',#1207,1.15);
#1207 = AXIS2_PLACEMENT_3D('',#1208,#1209,#1210);
#1208 = CARTESIAN_POINT('',(-4.899998645782,12.329999704361,2.45));
#1209 = DIRECTION('',(1.,1.762479051592E-15,1.387778780781E-17));
#1210 = DIRECTION('',(-1.256073966947E-15,0.707106781187,0.707106781187)
  );
#1211 = PCURVE('',#1084,#1212);
#1212 = DEFINITIONAL_REPRESENTATION('',(#1213),#1221);
#1213 = ( BOUNDED_CURVE() B_SPLINE_CURVE(2,(#1214,#1215,#1216,#1217,
#1218,#1219,#1220),.UNSPECIFIED.,.T.,.F.) B_SPLINE_CURVE_WITH_KNOTS((1,2
    ,2,2,2,1),(-2.094395102393,0.,2.094395102393,4.188790204786,
6.28318530718,8.377580409573),.UNSPECIFIED.) CURVE() 
GEOMETRIC_REPRESENTATION_ITEM() RATIONAL_B_SPLINE_CURVE((1.,0.5,1.,0.5,
1.,0.5,1.)) REPRESENTATION_ITEM('') );
#1214 = CARTESIAN_POINT('',(-3.363172798365,0.813172798365));
#1215 = CARTESIAN_POINT('',(-1.954716196264,2.221629400465));
#1216 = CARTESIAN_POINT('',(-1.439185299768,0.297641901868));
#1217 = CARTESIAN_POINT('',(-0.923654403271,-1.626345596729));
#1218 = CARTESIAN_POINT('',(-2.847641901868,-1.110814700232));
#1219 = CARTESIAN_POINT('',(-4.771629400465,-0.595283803736));
#1220 = CARTESIAN_POINT('',(-3.363172798365,0.813172798365));
#1221 = ( GEOMETRIC_REPRESENTATION_CONTEXT(2) 
PARAMETRIC_REPRESENTATION_CONTEXT() REPRESENTATION_CONTEXT('2D SPACE',''
  ) );
#1222 = PCURVE('',#600,#1223);
#1223 = DEFINITIONAL_REPRESENTATION('',(#1224),#1228);
#1224 = LINE('',#1225,#1226);
#1225 = CARTESIAN_POINT('',(10.995574287564,3.2));
#1226 = VECTOR('',#1227,1.);
#1227 = DIRECTION('',(-1.,0.));
#1228 = ( GEOMETRIC_REPRESENTATION_CONTEXT(2) 
PARAMETRIC_REPRESENTATION_CONTEXT() REPRESENTATION_CONTEXT('2D SPACE',''
  ) );
#1229 = ORIENTED_EDGE('',*,*,#1154,.T.);
#1230 = ADVANCED_FACE('',(#1231),#600,.T.);
#1231 = FACE_BOUND('',#1232,.T.);
#1232 = EDGE_LOOP('',(#1233,#1234,#1235,#1236));
#1233 = ORIENTED_EDGE('',*,*,#1204,.T.);
#1234 = ORIENTED_EDGE('',*,*,#1047,.T.);
#1235 = ORIENTED_EDGE('',*,*,#581,.F.);
#1236 = ORIENTED_EDGE('',*,*,#1177,.T.);
#1237 = ADVANCED_FACE('',(#1238),#165,.T.);
#1238 = FACE_BOUND('',#1239,.T.);
#1239 = EDGE_LOOP('',(#1240,#1241,#1242,#1266));
#1240 = ORIENTED_EDGE('',*,*,#122,.F.);
#1241 = ORIENTED_EDGE('',*,*,#418,.T.);
#1242 = ORIENTED_EDGE('',*,*,#1243,.T.);
#1243 = EDGE_CURVE('',#391,#1244,#1246,.T.);
#1244 = VERTEX_POINT('',#1245);
#1245 = CARTESIAN_POINT('',(-0.900000076294,14.479999704361,4.4));
#1246 = SURFACE_CURVE('',#1247,(#1252,#1259),.PCURVE_S1.);
#1247 = CIRCLE('',#1248,0.2);
#1248 = AXIS2_PLACEMENT_3D('',#1249,#1250,#1251);
#1249 = CARTESIAN_POINT('',(-0.900000076294,14.279999704361,4.4));
#1250 = DIRECTION('',(-1.,-1.773917384512E-15,-1.387778780781E-17));
#1251 = DIRECTION('',(-1.26416208972E-15,0.707106781187,0.707106781187)
  );
#1252 = PCURVE('',#165,#1253);
#1253 = DEFINITIONAL_REPRESENTATION('',(#1254),#1258);
#1254 = LINE('',#1255,#1256);
#1255 = CARTESIAN_POINT('',(12.566370614359,0.8));
#1256 = VECTOR('',#1257,1.);
#1257 = DIRECTION('',(-1.,0.));
#1258 = ( GEOMETRIC_REPRESENTATION_CONTEXT(2) 
PARAMETRIC_REPRESENTATION_CONTEXT() REPRESENTATION_CONTEXT('2D SPACE',''
  ) );
#1259 = PCURVE('',#406,#1260);
#1260 = DEFINITIONAL_REPRESENTATION('',(#1261),#1265);
#1261 = CIRCLE('',#1262,0.2);
#1262 = AXIS2_PLACEMENT_2D('',#1263,#1264);
#1263 = CARTESIAN_POINT('',(-2.55,-2.598864222723));
#1264 = DIRECTION('',(-0.707106781187,-0.707106781187));
#1265 = ( GEOMETRIC_REPRESENTATION_CONTEXT(2) 
PARAMETRIC_REPRESENTATION_CONTEXT() REPRESENTATION_CONTEXT('2D SPACE',''
  ) );
#1266 = ORIENTED_EDGE('',*,*,#1267,.T.);
#1267 = EDGE_CURVE('',#1244,#123,#1268,.T.);
#1268 = SURFACE_CURVE('',#1269,(#1273,#1280),.PCURVE_S1.);
#1269 = LINE('',#1270,#1271);
#1270 = CARTESIAN_POINT('',(-1.700000076294,14.479999704361,4.4));
#1271 = VECTOR('',#1272,1.);
#1272 = DIRECTION('',(-1.,-1.873501354055E-15,-1.387778780781E-17));
#1273 = PCURVE('',#165,#1274);
#1274 = DEFINITIONAL_REPRESENTATION('',(#1275),#1279);
#1275 = LINE('',#1276,#1277);
#1276 = CARTESIAN_POINT('',(5.497787143782,0.));
#1277 = VECTOR('',#1278,1.);
#1278 = DIRECTION('',(0.,-1.));
#1279 = ( GEOMETRIC_REPRESENTATION_CONTEXT(2) 
PARAMETRIC_REPRESENTATION_CONTEXT() REPRESENTATION_CONTEXT('2D SPACE',''
  ) );
#1280 = PCURVE('',#215,#1281);
#1281 = DEFINITIONAL_REPRESENTATION('',(#1282),#1286);
#1282 = LINE('',#1283,#1284);
#1283 = CARTESIAN_POINT('',(4.1,7.603872608729E-68));
#1284 = VECTOR('',#1285,1.);
#1285 = DIRECTION('',(3.909395667922E-47,-1.));
#1286 = ( GEOMETRIC_REPRESENTATION_CONTEXT(2) 
PARAMETRIC_REPRESENTATION_CONTEXT() REPRESENTATION_CONTEXT('2D SPACE',''
  ) );
#1287 = ADVANCED_FACE('',(#1288),#215,.T.);
#1288 = FACE_BOUND('',#1289,.T.);
#1289 = EDGE_LOOP('',(#1290,#1291,#1292,#1315));
#1290 = ORIENTED_EDGE('',*,*,#199,.F.);
#1291 = ORIENTED_EDGE('',*,*,#1267,.F.);
#1292 = ORIENTED_EDGE('',*,*,#1293,.F.);
#1293 = EDGE_CURVE('',#1294,#1244,#1296,.T.);
#1294 = VERTEX_POINT('',#1295);
#1295 = CARTESIAN_POINT('',(-0.900000076294,14.479999704361,0.5));
#1296 = SURFACE_CURVE('',#1297,(#1301,#1308),.PCURVE_S1.);
#1297 = LINE('',#1298,#1299);
#1298 = CARTESIAN_POINT('',(-0.900000076294,14.479999704361,4.6));
#1299 = VECTOR('',#1300,1.);
#1300 = DIRECTION('',(-1.387778780781E-17,-3.469446951954E-18,1.));
#1301 = PCURVE('',#215,#1302);
#1302 = DEFINITIONAL_REPRESENTATION('',(#1303),#1307);
#1303 = LINE('',#1304,#1305);
#1304 = CARTESIAN_POINT('',(4.3,0.8));
#1305 = VECTOR('',#1306,1.);
#1306 = DIRECTION('',(1.,0.));
#1307 = ( GEOMETRIC_REPRESENTATION_CONTEXT(2) 
PARAMETRIC_REPRESENTATION_CONTEXT() REPRESENTATION_CONTEXT('2D SPACE',''
  ) );
#1308 = PCURVE('',#406,#1309);
#1309 = DEFINITIONAL_REPRESENTATION('',(#1310),#1314);
#1310 = LINE('',#1311,#1312);
#1311 = CARTESIAN_POINT('',(-2.75,-2.798864222723));
#1312 = VECTOR('',#1313,1.);
#1313 = DIRECTION('',(-1.,3.851859888774E-34));
#1314 = ( GEOMETRIC_REPRESENTATION_CONTEXT(2) 
PARAMETRIC_REPRESENTATION_CONTEXT() REPRESENTATION_CONTEXT('2D SPACE',''
  ) );
#1315 = ORIENTED_EDGE('',*,*,#1316,.F.);
#1316 = EDGE_CURVE('',#200,#1294,#1317,.T.);
#1317 = SURFACE_CURVE('',#1318,(#1322,#1329),.PCURVE_S1.);
#1318 = LINE('',#1319,#1320);
#1319 = CARTESIAN_POINT('',(-1.700000076294,14.479999704361,0.5));
#1320 = VECTOR('',#1321,1.);
#1321 = DIRECTION('',(1.,1.873501354055E-15,1.387778780781E-17));
#1322 = PCURVE('',#215,#1323);
#1323 = DEFINITIONAL_REPRESENTATION('',(#1324),#1328);
#1324 = LINE('',#1325,#1326);
#1325 = CARTESIAN_POINT('',(0.2,3.7092061506E-69));
#1326 = VECTOR('',#1327,1.);
#1327 = DIRECTION('',(-2.736576967546E-47,1.));
#1328 = ( GEOMETRIC_REPRESENTATION_CONTEXT(2) 
PARAMETRIC_REPRESENTATION_CONTEXT() REPRESENTATION_CONTEXT('2D SPACE',''
  ) );
#1329 = PCURVE('',#268,#1330);
#1330 = DEFINITIONAL_REPRESENTATION('',(#1331),#1335);
#1331 = LINE('',#1332,#1333);
#1332 = CARTESIAN_POINT('',(5.497787143782,0.));
#1333 = VECTOR('',#1334,1.);
#1334 = DIRECTION('',(0.,-1.));
#1335 = ( GEOMETRIC_REPRESENTATION_CONTEXT(2) 
PARAMETRIC_REPRESENTATION_CONTEXT() REPRESENTATION_CONTEXT('2D SPACE',''
  ) );
#1336 = ADVANCED_FACE('',(#1337),#406,.F.);
#1337 = FACE_BOUND('',#1338,.T.);
#1338 = EDGE_LOOP('',(#1339,#1340,#1341,#1363,#1364,#1365,#1366,#1367));
#1339 = ORIENTED_EDGE('',*,*,#969,.F.);
#1340 = ORIENTED_EDGE('',*,*,#639,.T.);
#1341 = ORIENTED_EDGE('',*,*,#1342,.F.);
#1342 = EDGE_CURVE('',#1294,#617,#1343,.T.);
#1343 = SURFACE_CURVE('',#1344,(#1349,#1356),.PCURVE_S1.);
#1344 = CIRCLE('',#1345,0.2);
#1345 = AXIS2_PLACEMENT_3D('',#1346,#1347,#1348);
#1346 = CARTESIAN_POINT('',(-0.900000076294,14.279999704361,0.5));
#1347 = DIRECTION('',(-1.,-1.773917384512E-15,-1.387778780781E-17));
#1348 = DIRECTION('',(-1.244535933986E-15,0.707106781187,-0.707106781187
    ));
#1349 = PCURVE('',#406,#1350);
#1350 = DEFINITIONAL_REPRESENTATION('',(#1351),#1355);
#1351 = CIRCLE('',#1352,0.2);
#1352 = AXIS2_PLACEMENT_2D('',#1353,#1354);
#1353 = CARTESIAN_POINT('',(1.35,-2.598864222723));
#1354 = DIRECTION('',(0.707106781187,-0.707106781187));
#1355 = ( GEOMETRIC_REPRESENTATION_CONTEXT(2) 
PARAMETRIC_REPRESENTATION_CONTEXT() REPRESENTATION_CONTEXT('2D SPACE',''
  ) );
#1356 = PCURVE('',#268,#1357);
#1357 = DEFINITIONAL_REPRESENTATION('',(#1358),#1362);
#1358 = LINE('',#1359,#1360);
#1359 = CARTESIAN_POINT('',(-1.7763568394E-15,-0.8));
#1360 = VECTOR('',#1361,1.);
#1361 = DIRECTION('',(1.,0.));
#1362 = ( GEOMETRIC_REPRESENTATION_CONTEXT(2) 
PARAMETRIC_REPRESENTATION_CONTEXT() REPRESENTATION_CONTEXT('2D SPACE',''
  ) );
#1363 = ORIENTED_EDGE('',*,*,#1293,.T.);
#1364 = ORIENTED_EDGE('',*,*,#1243,.F.);
#1365 = ORIENTED_EDGE('',*,*,#390,.T.);
#1366 = ORIENTED_EDGE('',*,*,#997,.F.);
#1367 = ORIENTED_EDGE('',*,*,#920,.T.);
#1368 = ADVANCED_FACE('',(#1369),#268,.T.);
#1369 = FACE_BOUND('',#1370,.T.);
#1370 = EDGE_LOOP('',(#1371,#1372,#1373,#1374));
#1371 = ORIENTED_EDGE('',*,*,#227,.F.);
#1372 = ORIENTED_EDGE('',*,*,#1316,.T.);
#1373 = ORIENTED_EDGE('',*,*,#1342,.T.);
#1374 = ORIENTED_EDGE('',*,*,#616,.T.);
#1375 = ( GEOMETRIC_REPRESENTATION_CONTEXT(3) 
GLOBAL_UNCERTAINTY_ASSIGNED_CONTEXT((#1379)) 
GLOBAL_UNIT_ASSIGNED_CONTEXT((#1376,#1377,#1378)) REPRESENTATION_CONTEXT
('Context #1','3D Context with UNIT and UNCERTAINTY') );
#1376 = ( LENGTH_UNIT() NAMED_UNIT(*) SI_UNIT(.MILLI.,.METRE.) );
#1377 = ( NAMED_UNIT(*) PLANE_ANGLE_UNIT() SI_UNIT($,.RADIAN.) );
#1378 = ( NAMED_UNIT(*) SI_UNIT($,.STERADIAN.) SOLID_ANGLE_UNIT() );
#1379 = UNCERTAINTY_MEASURE_WITH_UNIT(LENGTH_MEASURE(5.E-05),#1376,
  'distance_accuracy_value','confusion accuracy');
#1380 = PRODUCT_RELATED_PRODUCT_CATEGORY('part',$,(#7));
ENDSEC;
END-ISO-10303-21;
